<svg width="564" height="564" viewBox="0 0 564 564" fill="none" xmlns="http://www.w3.org/2000/svg">
<path fill-rule="evenodd" clip-rule="evenodd" d="M292 75.586C286.552 76.449 280.077 76.84 276.818 76.503C272.897 76.098 270.04 76.374 267.596 77.395C264.408 78.727 263.73 78.707 260.778 77.187C258.472 76 255.128 75.515 249.5 75.552C239.899 75.614 234.585 77.75 221.16 86.945C216.297 90.275 211.685 93 210.91 93.001C210.134 93.001 206.637 94.356 203.138 96.011C195.263 99.737 186.513 108.643 177.606 122C164.549 141.581 154 158.237 154 159.272C154 159.861 154.68 161.094 155.512 162.013C156.795 163.431 156.859 164.867 155.936 171.506C153.493 189.071 159.152 207.818 170.46 219.62L174.756 224.103L175.91 236.369C176.544 243.115 177.43 250.96 177.88 253.802C178.776 259.471 178.591 260 175.716 260C172.805 260 166.379 266.978 165.103 271.523C162.248 281.697 161.672 293.172 163.386 305.761C166.988 332.211 172.615 341.685 185.5 342.992L190.5 343.5L191.356 349.199C192.007 353.533 191.69 358.204 190.033 368.699C186.975 388.063 187.526 386.694 182.499 387.448C180.114 387.805 177.662 388.702 177.049 389.441C176.436 390.179 173.002 401.07 169.417 413.642L162.9 436.5L168.67 441.803C186.369 458.068 219.445 475.562 248.343 483.94C269.777 490.155 278.73 491.448 300.5 491.475C318.459 491.497 321.313 491.265 328.465 489.194C338.299 486.347 346.871 481.862 352.012 476.873C356.594 472.426 358.476 466.884 359.95 453.5C361.556 438.911 359.307 428.746 353.453 424.141L350.865 422.106L352.153 412.303C353.436 402.534 353.458 402.481 358.544 397C373.796 380.562 380.623 368.481 383.912 352.111C385.061 346.397 386 341.609 386 341.472C386 341.335 387.529 340.936 389.399 340.585C391.268 340.234 393.895 339.083 395.238 338.028C398.442 335.508 402.555 326.195 404.558 316.928C406.708 306.982 407.106 274.214 405.144 268.664C403.334 263.544 398.356 258 395.569 258H393.346L399.895 218.574C406.37 179.596 406.423 179.125 404.531 177.034C402.711 175.023 402.7 174.777 404.308 172.055C407.055 167.406 406.526 164.219 402.707 162.397C399.446 160.842 399.416 160.764 399.55 154.164C399.675 147.976 400.017 147.012 404.342 140.672C410.722 131.319 410.453 127.841 403.236 126.397C401.14 125.978 399.978 125.05 399.584 123.479C398.207 117.992 383.736 109.02 376.212 108.989C374.009 108.979 373.125 108.183 371.5 104.74C370.4 102.409 366.35 97.33 362.5 93.451C350.168 81.028 335.895 75.506 313.745 74.589C305.408 74.244 298.468 74.562 292 75.586ZM330.487 154.799C322.801 157.456 316.143 161.758 309.681 168.24C306.253 171.679 303.228 173.918 302.426 173.61C298.859 172.241 274.24 167.968 264.726 167.067C251.909 165.853 247.961 164.343 241.815 158.306L237.13 153.704L232.565 154.982C219.991 158.502 213.099 167.992 209.429 186.838C207.523 196.628 207.619 207.704 209.697 217.732C211.398 225.938 211.396 225.973 209.201 228.982C207.991 230.642 206.113 233.238 205.028 234.75C201.855 239.174 199.797 253.546 199.339 274.464C198.915 293.835 198.547 295.512 194.911 294.649C193.585 294.334 193.337 295.281 193.411 300.386L193.5 306.5H190.009C187.048 306.5 186.138 305.909 184.009 302.603L181.5 298.706L181.175 302.013C180.727 306.568 183.833 310.605 187.473 310.199C191.247 309.777 193 311.617 193 316C193 320.558 190.71 323.015 188.166 321.186C187.25 320.527 185.825 319.699 185 319.346C172.385 313.95 169.263 298.436 178.229 285.693C179.331 284.126 179.063 283.492 176.202 280.914C174.388 279.279 172.515 278.182 172.041 278.475C171.567 278.768 170.879 282.718 170.513 287.254C169.33 301.906 174.42 327.511 179.533 332.624C182.654 335.745 189 336.021 189 333.035C189 330.382 192.622 328.441 194.564 330.053C195.354 330.709 196.007 331.977 196.015 332.872C196.024 333.928 196.474 333.622 197.294 332C199.15 328.331 202.5 328.653 202.5 332.5C202.5 335.116 202.148 335.495 199.75 335.461C198.186 335.438 197 335.964 197 336.679C197 337.391 197.656 337.685 198.513 337.357C200.576 336.565 203.243 338.963 202.683 341.105C202.372 342.293 202.673 342.679 203.626 342.313C205.287 341.676 208 343.693 208 345.567C208 346.294 206.927 348.136 205.615 349.662C203.56 352.05 203.005 352.249 201.615 351.095C200.53 350.195 200 350.128 200 350.89C200 352.558 203.856 366.189 204.513 366.847C204.822 367.156 206.296 367.429 207.788 367.454C210.042 367.492 210.475 367.922 210.355 370C210.275 371.375 209.891 373.488 209.502 374.696C208.923 376.495 209.165 376.863 210.847 376.737C212.336 376.624 212.622 376.249 211.89 375.367C211.19 374.524 211.525 372.892 212.986 370.027C215.464 365.17 217.751 363.939 219.599 366.466C220.704 367.978 220.597 368.87 218.909 372.178C217.81 374.334 216.283 376.338 215.518 376.631C214.753 376.925 214.373 377.809 214.675 378.595C214.977 379.382 214.727 380.624 214.121 381.355C213.514 382.086 213.312 382.978 213.672 383.338C214.032 383.698 215.146 382.644 216.148 380.996C218.152 377.701 220.093 377.202 221.995 379.493C222.99 380.693 222.916 381.657 221.617 384.395C219.646 388.548 219.643 388.649 221.449 389.342C222.371 389.696 222.714 389.417 222.392 388.578C222.113 387.852 222.51 386.633 223.273 385.87C224.036 385.107 224.502 384.005 224.307 383.421C223.756 381.769 227.825 373.281 229.47 372.65C231.968 371.691 234.073 374.677 232.962 377.601C231.369 381.79 229.783 384.456 228.396 385.276C227.674 385.703 227.329 386.695 227.63 387.479C228.072 388.63 228.559 388.673 230.15 387.703C231.792 386.701 232.355 386.815 233.518 388.383C234.719 390.002 234.7 390.679 233.383 393.225C232.541 394.854 231.998 396.308 232.176 396.458C232.354 396.608 234.412 397.922 236.75 399.378C240.854 401.934 241 401.954 241 399.963C241 397.382 243.721 392 245.026 392C245.562 392 246 391.086 246 389.969C246 387.22 248.771 386.336 250.828 388.428C252.392 390.019 252.369 390.238 250.475 391.815C249.361 392.742 248.59 394.201 248.761 395.057C248.932 395.914 247.949 398.27 246.576 400.293C244.13 403.897 244.12 403.994 246.054 405.029C247.533 405.82 248.132 405.761 248.436 404.793C248.659 404.082 249.241 402.182 249.73 400.571C250.926 396.633 253.479 395.051 255.454 397.026C256.751 398.323 256.768 399.194 255.58 403.699C254.154 409.102 254.398 410.641 256.387 408.783C257.033 408.179 257.395 406.254 257.19 404.505C256.699 400.297 259.25 397.528 262.176 399.094C263.81 399.969 264.09 400.809 263.593 403.342C263.252 405.079 262.367 406.954 261.625 407.509C260.617 408.264 260.531 409.145 261.285 411.009C262.225 413.331 262.38 413.134 263.571 408.106C264.98 402.158 266.438 400.629 269.26 402.139C270.622 402.868 270.985 403.865 270.598 405.82C270.307 407.294 269.782 410.3 269.433 412.5C268.811 416.412 268.834 416.451 270.455 414.25C271.367 413.012 272.425 412.007 272.807 412.015C274.551 412.054 276.343 414.024 276.577 416.158C276.718 417.446 276.871 418.682 276.917 418.905C276.963 419.128 277.898 418.497 278.996 417.503C280.504 416.139 280.723 415.371 279.891 414.368C279.152 413.478 279.023 410.387 279.5 404.998C280.051 398.775 280.616 396.74 282.001 395.999C285.305 394.231 286.36 397.173 285.663 406.209C285.318 410.692 284.531 414.672 283.914 415.053C283.09 415.563 283.098 416.315 283.947 417.901C285.42 420.654 287 419.703 287 416.063C287 412.455 289.507 410.189 291.834 411.694C293.011 412.456 293.419 413.906 293.224 416.636C292.957 420.372 292.991 420.417 294.253 418C295.878 414.889 299.174 414.757 300.487 417.75C301.289 419.577 302.276 420 305.737 420C309.241 420 310 419.666 310 418.122C310 417.09 310.662 415.695 311.472 415.023C312.767 413.948 312.765 413.622 311.45 412.307C310.321 411.178 310.112 409.554 310.597 405.657C311.304 399.98 313.001 397.403 315.422 398.332C317.511 399.133 317.66 410.197 315.609 412.248C314.422 413.435 314.458 413.954 315.859 415.799L317.5 417.959L318.656 415.48C319.32 414.054 319.426 412.764 318.906 412.442C317.885 411.811 317.679 405.001 318.607 402.582C319.542 400.145 322.905 400.697 324.181 403.497C325.035 405.371 325.027 406.966 324.15 409.892C322.961 413.861 323.483 417.437 325.105 416.435C325.597 416.131 326 412.999 326 409.476C326 404.237 326.341 402.888 327.874 402.067C330.359 400.737 332.689 403.289 333.29 408C333.536 409.925 333.684 408.815 333.619 405.532C333.501 399.602 333.481 399.564 330.5 399.532C328.236 399.508 327.5 399.036 327.5 397.609C327.5 394.74 330.798 393.072 332.35 395.156C333.219 396.324 334.065 396.543 335.214 395.9C337.494 394.624 339.964 397.341 340.142 401.321C340.272 404.228 340.336 404.157 340.892 400.5C341.421 397.02 341.834 396.503 344.068 396.525C346.214 396.546 346.564 396.172 346.197 394.25C345.805 392.201 345.627 392.128 344.563 393.584C342.747 396.067 339.556 394.971 339.183 391.736C338.829 388.671 341.156 387.055 343.327 388.856C344.36 389.714 344.584 389.171 344.415 386.218C344.298 384.173 343.884 381.712 343.494 380.75C342.388 378.016 343.71 375.82 346.246 376.18C347.964 376.424 348.541 377.213 348.671 379.5C348.881 383.195 352.887 393.389 352.953 390.399C352.979 389.244 352.492 386.842 351.872 385.063C350.934 382.371 351.02 381.551 352.388 380.183C353.682 378.89 354.419 378.78 355.845 379.671C357.49 380.698 357.651 380.418 357.579 376.652C357.511 373.065 357.81 372.456 359.777 372.177C361.559 371.924 362.29 372.534 363.145 374.985L364.236 378.117L366.738 374.435C369.043 371.043 369.141 370.456 367.984 366.952C367.294 364.86 367.001 362.44 367.333 361.574C368.048 359.711 371.102 359.502 372.8 361.2C373.733 362.133 374 362.022 374 360.7C374 359.658 373.214 359 371.969 359C370.851 359 369.676 358.319 369.357 357.487C368.492 355.233 370.988 352.78 373.505 353.412C375.533 353.921 375.784 353.272 377.828 342.226C379.022 335.777 380.478 325.55 381.065 319.5C382.582 303.859 382.868 302.354 384.608 300.911C385.856 299.875 386.557 299.866 388.16 300.868C390.731 302.474 392.624 301.015 393.218 296.968C393.724 293.519 393.001 293.167 391.232 296C390.531 297.123 388.9 298 387.515 298C382.864 298 382.05 294.975 381.027 273.902C379.945 251.629 378.751 241.738 375.799 230.61C373.813 223.126 373.789 222.484 375.331 218.11C377.849 210.965 378.279 206.055 377.004 198.996C374.169 183.302 364.2 168.128 349.64 157.341C342.928 152.369 339.016 151.849 330.487 154.799ZM336 240.1C319.19 241.56 313 243.91 313 248.832C313 250.364 313.601 252.44 314.336 253.445C315.589 255.158 316.537 255.202 329.586 254.157C345.286 252.899 354.145 253.716 362.146 257.158C366.667 259.103 367.272 259.156 368.693 257.735C371.092 255.336 369.496 251.132 364.293 246.147C356.669 238.842 354.882 238.46 336 240.1ZM236.225 241.644C232.51 243.493 223 253.463 223 255.509C223 257.598 226.116 260.216 227.899 259.624C228.78 259.332 232.2 258.127 235.5 256.946C240.51 255.154 243.563 254.817 254 254.907C260.875 254.965 268.242 255.426 270.371 255.929C272.501 256.432 274.88 256.6 275.658 256.301C277.281 255.678 280 250.839 280 248.573C280 244.666 269.026 241.805 249.5 240.621C241.38 240.128 238.884 240.321 236.225 241.644ZM249.185 260.134C246.261 260.611 241.368 262.227 238.312 263.724C232.22 266.707 229.876 269.941 231.975 272.47C233.702 274.551 235.627 274.394 239.772 271.832L243.28 269.664L245.223 272.332C247.366 275.273 250.068 275.664 256.298 273.934C258.85 273.225 260.399 272.08 261.023 270.44C261.533 269.098 262.202 268 262.508 268C262.815 268 265.309 269.137 268.051 270.526C273.744 273.41 277.381 272.659 276.811 268.717C275.961 262.84 261.023 258.199 249.185 260.134ZM332.383 259.89C323.433 262.196 316.2 267.753 317.555 271.282C318.563 273.908 321.094 274.142 324.806 271.952C327.852 270.155 328.461 270.072 329.178 271.354C330.267 273.3 335.273 274.359 339.57 273.553C342.092 273.08 343.145 272.271 343.6 270.456C344.365 267.41 346.709 267.301 352.117 270.059C357.66 272.887 360.5 272.37 360.5 268.532C360.5 265.931 359.798 265.206 354.806 262.653C348.715 259.538 338.591 258.29 332.383 259.89ZM305.006 261.492C304.102 262.582 303.899 266.558 304.254 276.242C304.676 287.78 305.145 290.659 307.87 298.438C311.959 310.114 311.874 312.18 306.991 319.653C302.825 326.029 302.63 328.43 306.186 329.559C307.552 329.993 309.031 329.404 310.844 327.704C312.878 325.797 314.24 325.33 316.661 325.708C319.179 326.101 320.06 325.757 320.991 324.017C321.953 322.22 321.836 321.476 320.33 319.811C318.939 318.273 318.578 316.55 318.827 312.633C319.067 308.846 318.31 304.959 315.977 297.989C313.311 290.024 312.694 286.364 312.136 275.205C311.63 265.068 311.119 261.687 309.986 260.97C307.866 259.63 306.427 259.781 305.006 261.492ZM392.459 267.067C392.096 267.653 392.04 268.373 392.333 268.667C393.05 269.383 395 268.121 395 266.941C395 265.663 393.274 265.748 392.459 267.067ZM175.439 269.067C173.843 270.831 173.835 271 175.348 271C176.26 271 179.261 273.173 182.016 275.829C187.082 280.712 187.371 280.444 184.535 273.5C182.372 268.203 178.103 266.123 175.439 269.067ZM395.217 277.281L393.143 279.5L396.072 282.417L399 285.333V280.726C399 275.211 398.001 274.301 395.217 277.281ZM397.116 306.766C397.052 307.463 395.475 308.76 393.611 309.648C389.956 311.391 390.101 310.915 388.407 326.769C387.827 332.201 387.945 332.958 389.296 332.44C392.542 331.194 398.93 311.842 397.661 307.1C397.425 306.22 397.18 306.07 397.116 306.766ZM281.571 320.571C277.591 324.552 280.443 326.766 289.717 326.893C295.766 326.976 297.093 326.694 297.919 325.151C298.628 323.827 298.48 322.703 297.396 321.155C296.119 319.332 294.905 319 289.515 319C285.055 319 282.671 319.472 281.571 320.571ZM309.483 335.053C308.994 336.593 308.51 336.838 307.543 336.035C305.344 334.21 302.999 335.931 303.015 339.357C303.035 343.415 304.266 345.287 306.62 344.84C307.841 344.608 308.639 343.434 308.896 341.491C309.275 338.638 309.322 338.611 309.919 340.905C310.867 344.545 313.774 345.961 315.508 343.628C316.79 341.902 317.026 341.883 318.519 343.376C319.748 344.605 320.604 344.747 322.069 343.963C324.305 342.767 324.317 342.682 322.975 337.849C321.724 333.345 319.144 332.104 316.869 334.914C315.239 336.927 315.214 336.928 314.704 334.975C314.015 332.341 310.326 332.396 309.483 335.053ZM290.128 335.345C288.018 337.889 287.699 342.505 289.528 344.024C291.025 345.266 291.456 345.156 293.115 343.107C295.263 340.454 295.565 336.965 293.8 335.2C292.258 333.658 291.504 333.688 290.128 335.345ZM204.709 335.624C203.504 336.83 203.925 339.693 205.5 341C207.506 342.664 210.216 340.512 209.798 337.588C209.503 335.518 206.12 334.213 204.709 335.624ZM281.31 336.921C280.665 339.389 280.32 339.463 278.4 337.542C276.506 335.649 274.593 336.446 272.966 339.805C271.91 341.984 271.583 342.165 271.257 340.75C270.865 339.049 266.018 338.13 265.985 339.75C265.976 340.163 265.587 341.104 265.119 341.842C264.407 342.965 263.909 342.965 262.069 341.842C260.107 340.645 259.661 340.754 257.935 342.861C256.871 344.159 256 345.861 256 346.642C256 348.739 258.962 349.505 261.337 348.022C262.833 347.087 263.514 347.043 263.788 347.864C264.408 349.724 267.778 349.155 269.339 346.927C270.247 345.63 271.04 345.255 271.455 345.927C272.576 347.741 275.799 347.119 277.547 344.75C278.659 343.243 279.366 342.913 279.687 343.75C281.193 347.675 287.484 342.44 286.827 337.808C286.381 334.663 282.082 333.971 281.31 336.921ZM325.159 336.308C324.278 337.37 324.324 338.633 325.352 341.601C326.406 344.647 327.217 345.5 329.056 345.5C330.715 345.5 331.615 344.762 332.105 343C332.724 340.776 332.812 340.736 332.9 342.639C332.955 343.816 333.871 345.841 334.935 347.139C336.74 349.34 336.985 349.388 338.557 347.843C339.908 346.514 340.067 345.444 339.358 342.443C338.222 337.644 335.697 335.874 333.342 338.229C331.748 339.823 331.581 339.793 330.548 337.721C329.22 335.058 326.737 334.407 325.159 336.308ZM297.582 337.316C295.219 339.044 295.782 344.347 298.38 344.84C300.529 345.248 301.962 343.471 301.985 340.372C302.007 337.266 299.772 335.715 297.582 337.316ZM316.079 339.583C316.127 340.748 316.364 340.985 316.683 340.188C316.972 339.466 316.936 338.603 316.604 338.271C316.272 337.939 316.036 338.529 316.079 339.583ZM342.2 341.2C339.681 343.719 342.142 350.266 345.431 349.796C348.098 349.414 348.67 345.671 346.554 342.442C344.756 339.698 343.936 339.464 342.2 341.2ZM211.036 342.456C210.372 343.257 210.14 344.418 210.522 345.036C210.904 345.654 210.365 346.757 209.323 347.486C206.283 349.616 202.381 358.795 203.657 360.817C205.555 363.827 207.439 362.615 210.831 356.2C213.347 351.442 213.893 349.576 213.06 348.573C212.215 347.554 212.429 347.121 213.979 346.716C216.393 346.084 216.703 342.484 214.418 341.607C212.332 340.806 212.425 340.783 211.036 342.456ZM250.363 349.497C250.017 350.398 250.196 351.596 250.761 352.161C252.391 353.791 255.5 352.692 255.5 350.486C255.5 347.943 251.272 347.128 250.363 349.497ZM324.5 350.575C308.508 354.198 275.997 354.713 266.655 351.492C262.787 350.158 262.363 350.196 260.514 352.044C258.962 353.594 258.764 354.408 259.606 355.764C261.44 358.716 265.687 360.108 276.293 361.233C292.664 362.97 327.839 359.833 335.008 355.996C336.51 355.192 337.03 354.091 336.81 352.183C336.432 348.909 333.529 348.529 324.5 350.575ZM221.18 356.283C220.595 356.988 219.657 358.773 219.095 360.249C217.764 363.75 220.092 366.556 223.026 364.986C224.991 363.935 226.686 357.919 225.54 356.065C224.644 354.616 222.474 354.724 221.18 356.283ZM210.427 359.93C208.222 363.263 207.966 364.255 208.994 365.493C211.024 367.939 213.42 367.233 215.368 363.615C219.218 356.466 214.867 353.221 210.427 359.93ZM224.229 365.738C222.449 366.358 220 371.404 220 374.45C220 375.853 220.188 377 220.418 377C220.648 377 221.53 377.266 222.377 377.591C223.409 377.987 224.592 377.078 225.955 374.841C229.276 369.396 228.312 364.314 224.229 365.738ZM232.04 366.452C230.118 368.768 231.186 371.5 234.014 371.5C235.873 371.5 236.585 370.898 236.837 369.113C237.338 365.574 234.209 363.838 232.04 366.452ZM362.12 366.776C360.893 369.068 362.477 372 364.943 372C367.28 372 368.302 369.433 366.961 366.928C365.67 364.515 363.368 364.443 362.12 366.776ZM195.204 385.586C193.985 393.058 193.219 399.546 193.502 400.003C194.352 401.379 208.025 411.317 215.359 415.891C236.444 429.04 266.079 440.755 285 443.421C297.288 445.153 311.178 451.987 317.878 459.599C322.192 464.499 326 473.145 326 478.038C326 480.229 326.471 481 327.809 481C331.319 481 332.813 478.471 334.894 469C336.536 461.526 341 435.655 341 433.61C341 432.998 338.753 432.752 293.5 428.398C277.402 426.849 275.837 426.505 264 421.907C250.654 416.722 240.134 411.057 222.5 399.558C210.368 391.647 204.547 385.774 200.622 377.483C199.194 374.467 197.89 372 197.723 372C197.557 372 196.423 378.114 195.204 385.586ZM297.714 374.714C296.644 375.784 296 375.972 296 375.214C296 374.546 294.884 374 293.519 374C291.707 374 290.869 374.674 290.411 376.498C290.066 377.872 290.044 379.672 290.361 380.498C291.113 382.458 294.895 382.438 295.65 380.471C296.167 379.123 296.379 379.135 297.434 380.579C299.091 382.844 302.295 381.986 302.978 379.095L303.543 376.701L304.75 379.35C306.137 382.395 307.214 382.643 309.429 380.429C311.104 378.753 311.372 377.132 310.393 374.582C309.673 372.704 305.418 372.461 304.583 374.25C304.117 375.25 303.883 375.25 303.417 374.25C302.587 372.471 299.724 372.704 297.714 374.714ZM234.66 377.396C232.215 381.128 231.677 384.487 233.309 385.841C234.1 386.498 235.422 386.775 236.248 386.458C238.228 385.699 241.419 378.534 240.659 376.554C239.763 374.218 236.436 374.685 234.66 377.396ZM298.094 384.387C297.421 385.198 297.012 387.579 297.185 389.68C297.459 393.004 297.825 393.5 300 393.5C302.332 393.5 302.5 393.166 302.5 388.514C302.5 383.201 300.574 381.398 298.094 384.387ZM238.331 386.25C234.408 391.617 234.146 396.304 237.741 396.817C239.509 397.069 240.402 396.225 242.128 392.673C243.32 390.22 244.018 387.489 243.679 386.606C242.947 384.699 239.626 384.478 238.331 386.25ZM289.585 388.862C289.293 389.336 288.599 393.715 288.045 398.594C287.194 406.088 287.27 407.699 288.537 408.966C289.674 410.103 290.457 410.203 291.769 409.381C293.061 408.571 293.72 406.112 294.368 399.677C294.846 394.937 294.972 390.37 294.65 389.529C294.023 387.896 290.472 387.428 289.585 388.862ZM305.199 390.26C303.942 391.775 303.262 404.996 304.35 406.757C305.438 408.517 308.671 408.3 309.393 406.418C309.727 405.548 310 401.546 310 397.525C310 391.781 309.661 390.084 308.418 389.607C306.349 388.813 306.411 388.8 305.199 390.26ZM225.573 390.895C223.92 391.543 223.873 391.737 225.24 392.262C226.164 392.617 227.066 392.27 227.386 391.437C227.689 390.647 227.839 390.032 227.719 390.07C227.598 390.109 226.633 390.48 225.573 390.895ZM296.582 398.25C295.062 405.752 295.065 411.809 296.589 413.074C299.469 415.464 301.431 412.944 302.177 405.895C303.03 397.836 302.524 396 299.452 396C297.75 396 296.904 396.664 296.582 398.25ZM177.22 415.261C174.866 423.642 172.69 431.458 172.385 432.629C171.921 434.409 173.577 436.07 182.496 442.767C213.926 466.366 256.773 482.137 293.678 483.691L307.855 484.288L308.551 480.581C310.984 467.613 301.327 454.692 287.24 452.069C265.053 447.937 252.193 443.661 231.5 433.537C214.271 425.107 198.434 414.925 188.847 406.115C185.187 402.752 182.037 400.005 181.847 400.011C181.656 400.017 179.574 406.88 177.22 415.261ZM273.69 401.154C271.361 402.457 271.312 410.522 273.627 411.41C276.269 412.424 278 410.078 278 405.485C278 400.938 276.596 399.527 273.69 401.154ZM303.421 411.345C303.107 412.163 302.997 414.107 303.175 415.666C303.435 417.936 303.998 418.5 306 418.5C308.25 418.5 308.5 418.1 308.5 414.5C308.5 411.111 308.156 410.451 306.246 410.18C304.938 409.994 303.752 410.483 303.421 411.345ZM351.439 448.098C350.747 449.218 346 469.437 346 471.265C346 471.817 346.874 471.159 347.942 469.801C349.726 467.532 351.412 460.092 352.259 450.75C352.622 446.744 352.507 446.371 351.439 448.098Z" fill="black"/>
</svg>
