<svg width="100" height="100" viewBox="0 0 100 100" fill="none" xmlns="http://www.w3.org/2000/svg">
<path fill-rule="evenodd" clip-rule="evenodd" d="M29.4425 0.221103C15.1354 2.5484 4.42552 12.3441 0.710373 26.5009C0.13201 28.7042 0.00199176 30.1269 2.67659e-05 34.2689C-0.00193823 38.7485 0.102534 39.74 0.896065 42.7746C4.31745 55.8594 14.7575 65.6053 28.0507 68.1243C31.4128 68.7613 36.9957 68.7564 40.3889 68.1135C42.9784 67.6228 43.0816 67.6277 43.9082 68.2771C44.3903 68.6559 45.2473 68.9461 45.884 68.9461C47.3692 68.9461 52.5748 66.3371 55.557 64.0982L57.8747 62.3578L60.4171 64.8823L62.9591 67.4069L62.3074 68.2879C61.8695 68.879 61.6897 69.5549 61.7602 70.3437C61.8522 71.3755 63.3557 73.1656 74.1 85.0357C80.8291 92.47 86.7935 98.8837 87.3542 99.2887C88.526 100.135 89.8409 100.229 91.1106 99.5569C92.1636 98.9998 99.1347 91.9927 99.6554 90.9681C100.184 89.9284 100.098 88.5371 99.4439 87.5406C98.9611 86.8055 92.1216 80.5319 74.4468 64.6115C71.7384 62.1719 71.1008 61.7489 70.1317 61.7489C69.5019 61.7489 68.634 62.0323 68.1864 62.3839L67.3784 63.0186L64.822 60.4499L62.2652 57.8808L63.4265 56.4617C64.0654 55.6811 65.2451 53.9309 66.0478 52.5726C68.9864 47.6003 69.5006 45.5805 68.2365 43.9752C67.5864 43.1495 67.5815 43.0465 68.0727 40.4598C69.0778 35.1679 68.5892 28.4644 66.8203 23.2736C63.1154 12.401 54.0187 3.96297 42.87 1.0563C39.3039 0.126886 32.5898 -0.290877 29.4425 0.221103ZM30.3163 6.18493C15.2477 8.34015 4.14813 22.6052 6.01455 37.4173C6.89782 44.4251 9.70219 50.0909 14.5859 54.734C17.2419 57.2596 19.163 58.5619 22.5084 60.106C26.685 62.0339 29.3538 62.5727 34.5188 62.5312C39.6802 62.4893 42.4138 61.8821 46.6998 59.8253C60.5366 53.1853 66.5282 36.1595 59.9193 22.2585C55.6723 13.3252 47.6485 7.51379 37.6883 6.15647C34.7667 5.75833 33.2566 5.76422 30.3163 6.18493ZM28.4496 10.3472C23.2551 11.624 16.1788 16.1059 16.1788 18.1195C16.1788 18.7054 17.3611 19.8746 17.9535 19.8746C18.2093 19.8746 19.2776 19.1336 20.3279 18.2277C22.7773 16.1157 26.8081 14.1142 29.9338 13.458C33.1181 12.7896 37.4532 13.0147 40.6912 14.0164C43.188 14.7888 43.748 14.7208 44.4839 13.5551C46.1967 10.8428 35.3018 8.66304 28.4496 10.3472ZM54.1677 24.7837C53.8989 25.2852 53.9785 25.9601 54.5041 27.6462C54.8827 28.8596 55.274 30.883 55.3739 32.1425C55.4738 33.402 55.763 34.7635 56.0162 35.1685C56.6404 36.167 57.9356 36.1303 58.6142 35.0956C59.0766 34.3906 59.0976 33.9303 58.777 31.5229C58.4053 28.733 57.4309 25.3912 56.7504 24.572C56.1809 23.8867 54.5778 24.0182 54.1677 24.7837Z" fill="black"/>
</svg>
