<svg width="220" height="167" viewBox="0 0 220 167" fill="none" xmlns="http://www.w3.org/2000/svg">
<path fill-rule="evenodd" clip-rule="evenodd" d="M109 10.671C109 19.207 108.668 21.709 107.341 23.175C106.018 24.638 105.903 25.492 106.774 27.403C108.289 30.728 107.351 33.4 104.184 34.786C95.052 38.783 95.048 38.789 95.023 47.114L95 54.728L90.513 56.442C82.991 59.315 81.728 62.119 80.835 77.935C79.809 96.109 79.39 98 76.387 98C74.26 98 74 98.446 74 102.094C74 105.346 74.411 106.295 76 106.71C77.921 107.213 78 108.074 78 128.634V150.035L71 149.891C65.801 149.784 64 149.394 64 148.373C64 146.553 53.36 146.421 52.756 148.233C52.119 150.142 12.047 150.286 11.316 148.382C10.956 147.442 9.059 147 5.393 147H0V157V167H48H96V132.968C96 96.134 96.229 94.325 101.408 90.251C105.526 87.012 111.055 86.488 116.362 88.836C124.454 92.415 124.456 92.43 124.798 132.25L125.096 167H172.548H220V157V147H214.5C210.767 147 209 147.402 209 148.25C209 149.207 204.192 149.518 188.5 149.576C172.1 149.637 168 149.387 168 148.326C168 146.487 157.416 146.473 156.711 148.31C156.361 149.223 154.129 149.603 149.354 149.56L142.5 149.5L142.266 128.652C142.043 108.848 142.127 107.78 143.946 107.304C146.577 106.616 147.162 104.337 146.128 98.82C146.057 98.445 144.994 97.995 143.763 97.82C140.896 97.41 139.956 93.271 139.377 78.5C139.14 72.45 138.734 66.522 138.473 65.327C137.661 61.595 133.065 57.095 128.927 55.98L125 54.923V47.199C125 40.672 124.71 39.321 123.13 38.487C122.102 37.944 119.363 36.459 117.045 35.186L112.83 32.873L113.508 27.941C114.06 23.932 113.888 22.894 112.593 22.397C111.271 21.89 111 19.937 111 10.893C111 4.298 110.605 0 110 0C109.396 0 109 4.224 109 10.671ZM109.057 23.965C107.366 25.01 108.412 28 110.469 28C111.318 28 112 27.135 112 26.059C112 23.677 110.848 22.858 109.057 23.965ZM109.583 30.866C109.152 31.563 109.07 32.403 109.4 32.733C110.295 33.628 111.271 32.312 110.787 30.862C110.449 29.846 110.213 29.846 109.583 30.866ZM106.131 36.755C105.295 38.318 105.73 38.509 110.103 38.505C113.78 38.501 114.887 38.165 114.507 37.168C114.228 36.436 114 35.648 114 35.418C114 35.188 112.441 35 110.535 35C108.255 35 106.749 35.6 106.131 36.755ZM99.924 39.588L97.5 42.176L100.195 40.953C101.677 40.28 103.126 39.115 103.414 38.365C104.25 36.186 102.554 36.781 99.924 39.588ZM117 37.85C117 38.771 121.348 42 122.587 42C123.62 42 120.864 38.997 118.832 37.91C117.76 37.337 117 37.312 117 37.85ZM101.962 42.25C99.324 43.58 97.358 45.318 97.151 46.5C96.822 48.392 96.918 48.379 98.93 46.261C104.655 40.235 113.02 39.489 119.494 44.427C122.26 46.537 123 46.764 123 45.502C123 43.336 115.48 40.049 110.462 40.022C108.223 40.01 104.436 41.002 101.962 42.25ZM103.299 44.96C100.135 46.889 97 51.554 97 54.334C97 55.122 97.853 55.99 98.896 56.262C100.356 56.644 101.131 55.895 102.268 52.999C105.146 45.672 114.646 45.509 118 52.728C119.87 56.753 123 57.162 123 53.382C123 51.675 121.65 49.415 119.118 46.882C115.791 43.556 114.61 43.001 110.868 43.004C108.302 43.006 105.179 43.813 103.299 44.96ZM106.3 50.668C102.384 54.043 102.553 56.352 106.927 59.216C110.788 61.744 110.909 61.758 112.591 59.899C113.536 58.855 114.915 58 115.655 58C117.348 58 117.409 53.932 115.75 51.705C113.778 49.058 108.8 48.512 106.3 50.668ZM90.5 57.903C89.4 58.386 87.375 59.991 86 61.469C83.735 63.904 83.467 65.114 83.153 74.328L82.805 84.5L84.773 82C86.156 80.243 86.871 77.453 87.177 72.616C87.675 64.74 89.806 62 95.436 62C98.933 62 103 65.396 103 68.314C103 70.125 106.456 70.689 107.473 69.044C108.496 67.388 105.39 61.486 102.498 59.591C99.266 57.473 93.368 56.643 90.5 57.903ZM119.449 58.551C114.015 61.233 110.608 70 115 70C116.137 70 117 69.333 117 68.455C117 65.636 121.664 62 125.28 62C130.547 62 133 65.306 133 72.407C133 76.67 133.524 78.851 135 80.727L137 83.27V74.585C137 65.363 135.588 60.92 132.055 59.03C128.909 57.346 129.017 57.817 132.6 61.4C135.667 64.467 137.458 69.019 135 67.5C134.45 67.16 134 66.266 134 65.514C134 63.696 129.217 60 126.865 60C124.506 60 124.421 58.298 126.75 57.689C127.715 57.437 127.154 57.19 125.5 57.139C123.85 57.087 121.127 57.723 119.449 58.551ZM90.256 59.029C88.23 59.843 84.013 65.388 84.004 67.25C83.995 69.037 85.624 67.701 87.081 64.727C88.069 62.711 89.833 61.112 91.783 60.465C93.499 59.896 95.225 59.108 95.618 58.715C96.611 57.722 92.977 57.935 90.256 59.029ZM107 61.786C107 62.389 107.45 63.16 108 63.5C108.55 63.84 109 65.216 109 66.559C109 70.12 110.341 69.543 111.629 65.426C112.384 63.015 112.403 62.197 111.688 62.912C110.941 63.659 110.091 63.488 108.814 62.331C107.816 61.429 107 61.183 107 61.786ZM90.655 65.829C89.605 66.989 89 69.39 89 72.397V77.136L91.956 75.031C93.581 73.874 96.281 72.449 97.956 71.866C101.204 70.733 102.099 67.499 99.8 65.2C97.978 63.378 92.534 63.753 90.655 65.829ZM120.655 65.829C118.324 68.404 118.599 70.683 121.323 71.366C122.601 71.687 125.301 73.072 127.323 74.445L131 76.94V71.67C131 68.771 130.46 65.86 129.8 65.2C127.978 63.378 122.534 63.753 120.655 65.829ZM101.803 72.34C90.647 75.484 81.232 86.101 81.044 95.75C81.003 97.866 81.401 97.999 87.75 97.99L94.5 97.98L96.133 94.089C101.029 82.427 120.035 83.013 124.992 94.98C126.211 97.925 126.414 98 133.096 98H139.95L139.339 94.75C137.675 85.891 131.107 77.583 123.015 74.102C116.677 71.375 107.833 70.641 101.803 72.34ZM106.44 75.617C106.801 77.056 107.356 79.531 107.673 81.117C108.543 85.465 111.641 84.956 112.947 80.25C114.771 73.685 114.482 73 109.892 73C105.96 73 105.811 73.112 106.44 75.617ZM95.306 76.998C92.342 78.697 88.848 81.814 87.167 84.257C84.01 88.846 81.659 95.671 82.958 96.474C83.394 96.743 84.316 94.942 85.008 92.472C86.61 86.751 92.666 79.847 98.48 77.115C100.966 75.946 103 74.767 103 74.495C103 73.3 100.12 74.237 95.306 76.998ZM117 74.386C117 74.718 119.034 75.946 121.52 77.115C127.361 79.86 133.392 86.758 135.013 92.545C135.742 95.149 136.666 96.734 137.165 96.235C138.359 95.041 135.554 87.415 132.399 83.279C130.991 81.432 128.187 78.841 126.169 77.522C122.508 75.127 117 73.244 117 74.386ZM108.61 77.75C109.366 80.958 110.993 83.124 111.014 80.95C111.021 80.153 111.299 78.488 111.63 77.25C112.118 75.431 111.824 75 110.098 75C108.277 75 108.058 75.406 108.61 77.75ZM76 102.5C76 104.981 76.067 105 85 105C93.933 105 94 104.981 94 102.5C94 100.019 93.933 100 85 100C76.067 100 76 100.019 76 102.5ZM126.512 101.75C126.696 102.713 126.881 103.838 126.923 104.25C126.966 104.662 131.05 105 136 105C144.933 105 145 104.981 145 102.5C145 100.01 144.961 100 135.588 100C127.164 100 126.212 100.184 126.512 101.75ZM79.346 102.25C79.091 102.662 80.784 103 83.108 103C85.432 103 87.036 102.703 86.672 102.339C85.745 101.412 79.907 101.341 79.346 102.25ZM134.75 102.706C135.988 102.944 138.012 102.944 139.25 102.706C140.488 102.467 139.475 102.272 137 102.272C134.525 102.272 133.512 102.467 134.75 102.706ZM80 136V165H87H94V136V107H87H80V136ZM126.5 136V165H133.75H141V136V107H133.75H126.5V136ZM81.667 109.667C80.549 110.784 80.876 164 82 164C82.642 164 83 154.5 83 137.5V111H87.441C89.884 111 92.16 110.55 92.5 110C93.191 108.881 82.772 108.561 81.667 109.667ZM128 110C128 110.55 130.025 111 132.5 111H137V137.5C137 154.5 137.358 164 138 164C138.642 164 139 154.167 139 136.5V109H133.5C130.475 109 128 109.45 128 110ZM3.762 149.707C5.006 149.946 6.806 149.937 7.762 149.687C8.718 149.437 7.7 149.241 5.5 149.252C3.3 149.263 2.518 149.468 3.762 149.707ZM56.762 149.707C58.006 149.946 59.806 149.937 60.762 149.687C61.718 149.437 60.7 149.241 58.5 149.252C56.3 149.263 55.518 149.468 56.762 149.707ZM160.762 149.707C162.006 149.946 163.806 149.937 164.762 149.687C165.718 149.437 164.7 149.241 162.5 149.252C160.3 149.263 159.518 149.468 160.762 149.707ZM212.762 149.707C214.006 149.946 215.806 149.937 216.762 149.687C217.718 149.437 216.7 149.241 214.5 149.252C212.3 149.263 211.518 149.468 212.762 149.707ZM2 158.3V165.6H5.5H9V158.3V151H5.5H2V158.3ZM11 157C11 162.333 11.222 163 13 163C14.778 163 15 162.333 15 157C15 151.667 14.778 151 13 151C11.222 151 11 151.667 11 157ZM16.419 157C16.396 161.774 16.707 163 17.945 163C19.179 163 19.5 161.761 19.5 157C19.5 152.289 19.172 151 17.974 151C16.78 151 16.442 152.301 16.419 157ZM21 157V163H25H29V157C29 152.333 28.667 151 27.5 151C26.348 151 26 152.278 26 156.5C26 159.525 25.55 162 25 162C24.45 162 24 159.525 24 156.5C24 152.278 23.652 151 22.5 151C21.333 151 21 152.333 21 157ZM30.425 156.999C30.483 161.631 30.842 162.998 32 162.999C33.167 163 33.5 161.667 33.5 157C33.5 152.206 33.183 151 31.925 151C30.658 151 30.364 152.174 30.425 156.999ZM35 157C35 161.667 35.333 163 36.5 163C37.667 163 38 161.667 38 157C38 152.333 37.667 151 36.5 151C35.333 151 35 152.333 35 157ZM39.839 157.002C39.546 162.181 39.74 163.003 41.25 163.002C42.722 163 43 162.047 43 157C43 152.501 42.647 151 41.589 151C40.568 151 40.084 152.661 39.839 157.002ZM44.474 157C44.453 161.724 44.772 163 45.974 163C47.172 163 47.5 161.712 47.5 157C47.5 152.333 47.167 151 46 151C44.836 151 44.494 152.345 44.474 157ZM49 156.927C49 162.383 49.208 163 51.05 163C52.913 163 53.073 162.477 52.8 157.26C52.563 152.732 52.13 151.449 50.75 151.186C49.239 150.899 49 151.682 49 156.927ZM54.739 151.75C54.53 152.162 54.391 155.416 54.43 158.979L54.5 165.458L58.25 165.746L62 166.034V158.517V151H58.559C56.666 151 54.947 151.338 54.739 151.75ZM64 158.3V165.599L71 165.84L78 166.08V158.54V151H71H64V158.3ZM142.9 152.204C142.516 157.21 142.416 163.672 142.71 164.551C142.912 165.157 145.907 165.57 149.781 165.527L156.5 165.452V158.476V151.5L149.75 151.204C144.775 150.986 142.974 151.249 142.9 152.204ZM158.751 151.75C158.55 152.162 158.411 155.425 158.442 159L158.5 165.5L162 165.452L165.5 165.404L165.794 158.202L166.088 151H162.603C160.686 151 158.953 151.338 158.751 151.75ZM168 157C168 162.048 168.278 163 169.75 163C171.222 163 171.5 162.048 171.5 157C171.5 151.952 171.222 151 169.75 151C168.278 151 168 151.952 168 157ZM173 157C173 161.667 173.333 163 174.5 163C175.667 163 176 161.667 176 157C176 152.333 175.667 151 174.5 151C173.333 151 173 152.333 173 157ZM177.5 157C177.5 162.048 177.778 163 179.25 163C180.722 163 181 162.048 181 157C181 151.952 180.722 151 179.25 151C177.778 151 177.5 151.952 177.5 157ZM182.38 157C182.406 161.728 182.74 163 183.956 163.002C185.214 163.003 185.437 161.893 185.161 157.002C184.94 153.084 184.393 151 183.585 151C182.737 151 182.359 152.883 182.38 157ZM187 157C187 161.667 187.333 163 188.5 163C189.667 163 190 161.667 190 157C190 152.333 189.667 151 188.5 151C187.333 151 187 152.333 187 157ZM191.5 157C191.5 161.722 191.826 163 193.032 163C194.235 163 194.567 161.715 194.579 157C194.592 152.245 194.274 151 193.047 151C191.823 151 191.5 152.251 191.5 157ZM196 157C196 162.047 196.278 163 197.75 163.002C199.26 163.003 199.454 162.181 199.161 157.002C198.916 152.661 198.432 151 197.411 151C196.353 151 196 152.501 196 157ZM201 157C201 161.667 201.333 163 202.5 163C203.667 163 204 161.667 204 157C204 152.333 203.667 151 202.5 151C201.333 151 201 152.333 201 157ZM205.5 157C205.5 162.048 205.778 163 207.25 163C208.722 163 209 162.048 209 157C209 151.952 208.722 151 207.25 151C205.778 151 205.5 151.952 205.5 157ZM211.205 158.116L211.5 165.358L214.963 165.429L218.426 165.5L218.463 158.5L218.5 151.5L214.705 151.187L210.91 150.874L211.205 158.116ZM21.304 165.747C27.247 165.924 36.697 165.923 42.304 165.745C47.912 165.567 43.05 165.422 31.5 165.423C19.95 165.424 15.362 165.57 21.304 165.747ZM178.304 165.747C184.247 165.924 193.697 165.923 199.304 165.745C204.912 165.567 200.05 165.422 188.5 165.423C176.95 165.424 172.362 165.57 178.304 165.747Z" fill="black"/>
</svg>
