<svg width="337" height="388" viewBox="0 0 337 388" fill="none" xmlns="http://www.w3.org/2000/svg">
<path fill-rule="evenodd" clip-rule="evenodd" d="M232.015 1.59766C230.575 2.50808 230.562 3.13524 231.926 5.95044C232.804 7.75962 233.429 9.63293 233.318 10.1144C233.206 10.5946 234.624 10.9887 236.469 10.9887C238.313 10.9887 240.518 11.9072 241.366 13.0287C242.68 14.7644 242.666 14.8507 241.277 13.6115C240.378 12.8095 238.83 12.1707 237.835 12.1917C236.307 12.2231 236.34 12.4656 238.05 13.7642C239.162 14.6082 239.703 15.669 239.252 16.1201C238.801 16.5713 239.386 16.5736 240.554 16.126C243.747 14.9008 242.544 18.9983 239.024 21.3309C236.258 23.1645 236.209 23.1424 236.935 20.3645C237.662 17.5889 236.185 14.4858 234.138 14.4858C232.627 14.4858 232.894 18.462 234.513 20.0812C235.576 21.1444 235.581 21.4801 234.535 21.4801C232.852 21.4801 231.431 16.3498 232.409 13.8015C232.802 12.778 232.104 10.6541 230.852 9.06173C229.575 7.44022 228.887 5.31629 229.279 4.21119C229.71 2.99535 228.567 3.55956 226.281 5.68698C219.801 11.7219 219.15 21.6852 224.838 27.7866C227.098 30.2113 227.076 30.3267 220.203 51.6068C216.405 63.3677 213.297 73.4103 213.297 73.9244C213.297 75.2615 223.065 76.0658 223.918 74.7987C224.31 74.217 224.948 74.5725 225.338 75.5879C227.266 80.6098 229.558 76.869 235.323 59.29C238.597 49.3103 241.274 40.1945 241.274 39.0322C241.274 36.5364 238.546 33.9497 237.219 35.1877C236.709 35.6622 236.523 35.3124 236.805 34.4102C237.087 33.5068 238.601 32.587 240.17 32.3667C242.264 32.0718 242.577 32.2524 241.349 33.0451C239.963 33.9404 239.937 34.4405 241.201 35.9629C246.525 42.3778 260.131 28.5711 258.269 18.6451C257.615 15.1584 254.098 10.3055 254.096 12.8864C254.096 13.4448 253.048 11.7872 251.768 9.20161C250.488 6.61722 247.916 3.60036 246.052 2.49876C242.414 0.350344 234.763 -0.141587 232.015 1.59766ZM247.796 27.5861C243.494 32.0729 243.979 32.6395 248.668 28.6014C250.521 27.0067 253.631 22.4651 252.681 22.7425C252.498 22.7962 250.3 24.9761 247.796 27.5861ZM230.325 54.2448C227.982 60.7705 226.261 66.3065 226.502 66.5489C226.745 66.7902 228.858 61.6471 231.199 55.1191C233.541 48.5911 235.26 43.0551 235.021 42.815C234.782 42.576 232.669 47.7191 230.325 54.2448ZM225.046 71.1197C225.102 72.4777 225.379 72.754 225.75 71.825C226.087 70.9833 226.045 69.9773 225.658 69.5903C225.271 69.2033 224.996 69.891 225.046 71.1197ZM200.952 79.5117C195.706 81.378 187.671 85.5279 182.846 88.863C174.767 94.448 159.495 108.827 153.815 116.194C152.457 117.958 150.683 119.4 149.874 119.4C149.065 119.4 145.562 117.434 142.089 115.029C115.705 96.7596 90.0823 87.2742 73.528 89.6476C56.0014 92.1608 48.232 103.56 48.4837 126.394C48.6178 138.661 52.2805 157.683 56.6764 168.943C57.6777 171.508 59.4963 176.13 60.7191 179.213L62.9409 184.821L52.7304 189.522C18.856 205.123 0.265144 224.72 0.944756 244.114C1.18256 250.922 7.49957 262.032 14.882 268.629C20.9309 274.033 40.1314 286.097 42.6843 286.097C43.2648 286.097 47.923 287.719 53.0382 289.699C58.1522 291.681 66.5337 294.18 71.6628 295.253L80.9885 297.204L81.7323 318.171C82.5249 340.51 83.1719 344.312 88.6776 359.007C93.4022 371.614 100.582 380.583 109.222 384.671C115.119 387.461 116.812 387.731 125.511 387.275C134.128 386.823 136.339 386.197 145.203 381.702C157.87 375.28 164.612 370.074 177.899 356.46C183.756 350.459 188.892 345.549 189.315 345.549C189.737 345.549 194.65 348.612 200.233 352.356C214.65 362.027 223.92 366.828 236.611 371.196C257.186 378.277 270.098 377.255 279.833 367.774C287.056 360.737 289.501 352.88 289.467 336.806C289.436 322.358 286.812 309.069 280.776 292.787C276.354 280.862 275.965 277.937 278.795 277.937C280.411 277.937 302.482 266.727 305.118 264.566C306.229 263.657 310.294 260.57 314.152 257.707C333.227 243.551 341.189 224.677 334.225 210.119C326.279 193.508 303.125 179.538 269.543 171.095L256.429 167.798L256.43 162.542V157.286L250.67 157.686C245.327 158.055 244.853 158.341 244.134 161.616L243.357 165.149L228.036 164.398C219.609 163.985 209.013 163.344 204.49 162.973L196.266 162.301L182.593 149.04C175.073 141.746 167.102 134.391 164.88 132.696C162.658 131.001 160.84 128.953 160.84 128.145C160.84 125.928 182.769 103.973 189.226 99.7252C199.721 92.8218 206.563 89.9681 214.056 89.3666C220.164 88.8759 221.934 89.1964 225.586 91.4532C232.992 96.0298 239.353 109.04 242.288 125.61C243.043 129.868 243.5 130.435 245.958 130.153C249.328 129.767 254.106 125.546 254.073 122.986C254.025 119.355 248.501 102.402 245.878 97.8344C238.231 84.5184 228.795 77.6046 217.003 76.6778C211.76 76.2652 208.421 76.855 200.952 79.5117ZM268.279 84.6956C259.689 89.6056 254.45 93.2519 255.265 93.7555C256.015 94.2183 256.5 95.0635 256.345 95.6335C256.188 96.2024 257.848 97.5884 260.033 98.7122C263.819 100.66 264.081 100.66 265.62 98.7122C266.75 97.2807 267.059 97.1921 266.648 98.4172C266.325 99.3789 264.675 104.724 262.978 110.296C258.562 124.797 252.488 131.262 241.281 133.387C234.302 134.711 227.198 133.474 222.716 130.155C219.01 127.411 214.452 120.869 214.493 118.353C214.511 117.326 215.428 118.499 216.533 120.96L218.543 125.435L218.422 117.16C218.331 111.009 217.771 108.301 216.241 106.609C215.107 105.357 214.495 103.51 214.881 102.505C215.338 101.314 214.666 100.26 212.95 99.478C209.156 97.7493 204.227 99.9082 203.271 103.715C201.937 109.031 203.483 122.042 206.044 127.056C208.783 132.422 216.4 139.759 221.871 142.303C224.866 143.696 225.003 143.9 222.623 143.42C219.783 142.845 219.768 142.876 222.04 144.645C229.28 150.281 244.539 151.983 253.414 148.144C260.925 144.895 268.636 138.253 272.718 131.519C276.471 125.327 276.51 125.123 274.42 122.812C272.286 120.454 272.271 120.459 270.282 124.294C267.355 129.936 260.753 137.157 256.268 139.623L252.349 141.777L255.846 138.886C257.769 137.296 260.506 135.015 261.927 133.818C263.349 132.62 266.283 128.659 268.449 125.015C272.316 118.508 272.426 118.43 274.608 120.597C276.79 122.766 276.947 122.431 283.712 101.215C290.076 81.2556 290.452 79.4837 288.694 77.7258C287.649 76.6802 286.572 76.0553 286.301 76.3386C286.032 76.6207 284.737 80.2612 283.425 84.4287C282.113 88.5961 281.01 91.1537 280.974 90.1127C280.938 89.0705 281.695 85.9884 282.657 83.2629C284.618 77.7048 284.807 76.2209 283.531 76.3736C283.05 76.4307 276.187 80.1761 268.279 84.6956ZM276.967 101.47C275.3 106.428 274.136 110.685 274.381 110.929C274.624 111.174 276.189 107.316 277.856 102.358C279.522 97.4007 280.687 93.1435 280.442 92.8999C280.199 92.6551 278.634 96.5125 276.967 101.47ZM262.039 96.882C262.88 97.2189 263.886 97.1769 264.273 96.7899C264.66 96.4029 263.972 96.1278 262.743 96.1779C261.385 96.2338 261.109 96.5101 262.039 96.882ZM70.4971 103.016C60.7774 106.995 58.1825 123.468 63.4445 147.802C65.734 158.393 71.5229 176.018 74.0584 180.122C74.316 180.538 79.6526 179.376 85.9172 177.539C92.1829 175.703 102.304 173.112 108.408 171.78C120.735 169.093 119.155 170.497 127.764 154.587C129.954 150.539 134.096 143.66 136.967 139.301C139.84 134.943 142.189 130.81 142.189 130.119C142.189 126.422 106.377 106.822 93.858 103.666C86.4184 101.791 74.3148 101.454 70.4971 103.016ZM215.666 102.704C215.717 104.043 218.626 107.743 219.627 107.743C221.414 107.743 219.584 102.497 217.669 102.132C216.546 101.918 215.645 102.175 215.666 102.704ZM213.614 111.24C213.614 114.125 213.841 115.305 214.12 113.863C214.398 112.421 214.398 110.059 214.12 108.617C213.841 107.175 213.614 108.355 213.614 111.24ZM272.435 114.644C271.928 116.583 272.079 117.038 272.944 116.173C273.623 115.495 273.947 114.253 273.667 113.412C273.376 112.539 272.848 113.068 272.435 114.644ZM149.9 142.091C148.865 143.67 148.017 145.279 148.017 145.666C148.017 146.052 146.764 148.037 145.233 150.078C141.753 154.717 136.274 165.553 137.027 166.307C137.337 166.616 139.805 166.452 142.511 165.942C145.219 165.432 154.385 164.641 162.88 164.186C171.375 163.731 178.326 162.889 178.326 162.317C178.326 160.088 155.81 139.217 153.407 139.217C152.513 139.217 150.935 140.51 149.9 142.091ZM246.885 143.511C247.725 143.847 248.731 143.805 249.118 143.418C249.505 143.031 248.818 142.756 247.589 142.806C246.231 142.862 245.955 143.139 246.885 143.511ZM226.994 144.652C227.796 144.976 229.108 144.976 229.909 144.652C230.711 144.329 230.054 144.064 228.451 144.064C226.849 144.064 226.193 144.329 226.994 144.652ZM240.983 144.652C241.785 144.976 243.096 144.976 243.897 144.652C244.699 144.329 244.043 144.064 242.44 144.064C240.837 144.064 240.182 144.329 240.983 144.652ZM157.894 176.764C151.465 177.288 142.299 178.367 137.526 179.159C129.155 180.549 128.753 180.766 126.217 185.263C122.627 191.632 114.681 211.887 110.1 226.351L106.317 238.296L110.621 244.419C114.473 249.901 118.519 255.233 129.949 269.893C131.872 272.359 136.331 277.823 139.857 282.034L146.269 289.689L161.423 289.057C174.668 288.506 199.467 285.917 207.163 284.282C210.295 283.618 212.37 279.749 220.2 259.984C226.894 243.088 230.783 231.071 230.783 227.286C230.783 223.587 221.103 210.426 198.342 183.181L191.734 175.269L180.658 175.54C174.566 175.689 164.323 176.239 157.894 176.764ZM208.634 176.099C208.634 176.51 211.651 180.564 215.337 185.109C224.845 196.83 228.014 200.956 231.464 206.099C234.008 209.893 234.737 210.358 236.03 209.013C236.876 208.132 238.141 204.002 238.84 199.834C239.54 195.667 240.694 189.211 241.404 185.488C242.114 181.765 242.495 178.517 242.249 178.272C241.631 177.653 218.719 175.354 213.174 175.354C210.677 175.354 208.634 175.69 208.634 176.099ZM254.749 182.625C254.437 184.075 253.337 189.722 252.305 195.171C251.274 200.621 249.371 209.687 248.077 215.319L245.725 225.557L250.664 233.387C256.884 243.249 266.912 260.558 266.946 261.492C266.96 261.882 267.878 263.368 268.986 264.795C270.868 267.22 271.29 267.288 275.46 265.848C284.304 262.789 302.218 251.589 310.564 243.897C319.832 235.358 324.338 227.744 324.351 220.609C324.377 205.054 299.528 189.999 258.494 180.706C255.847 180.106 255.221 180.426 254.749 182.625ZM103.137 185.546C90.1627 189.168 81.4618 192.075 80.9081 192.971C79.6619 194.986 94.927 221.983 97.312 221.983C98.1292 221.983 99.1189 220.277 99.5106 218.194C99.9034 216.111 102.847 207.949 106.051 200.057C109.257 192.165 111.88 185.533 111.88 185.319C111.88 184.037 108.201 184.132 103.137 185.546ZM53.4952 203.141C30.5959 214.463 15.6164 228.499 13.3724 240.737C11.1739 252.725 26.0356 266.665 51.5892 276.584C63.1787 281.081 81.1133 285.778 82.2731 284.618C82.5902 284.301 84.1476 277.816 85.7342 270.207C87.3207 262.598 89.4493 252.403 90.4635 247.553L92.3088 238.733L83.9879 224.821C79.4125 217.17 74.2425 207.905 72.4998 204.234C70.1859 199.36 68.7019 197.567 67 197.588C65.7177 197.603 59.6408 200.102 53.4952 203.141ZM159.091 203.596C137.765 211.199 132.991 236.705 149.969 252.353C156.682 258.542 162.113 260.736 170.749 260.75C191.019 260.781 202.929 243.439 196.2 223.688C191.304 209.322 172.139 198.945 159.091 203.596ZM236.116 253.768C233.599 260.329 230.29 268.77 228.761 272.526C227.234 276.282 226.313 279.685 226.716 280.087C227.557 280.93 256.521 273.588 257.985 272.16C258.52 271.638 258.056 269.446 256.953 267.288C252.761 259.089 242.27 241.801 241.498 241.82C241.054 241.832 238.633 247.208 236.116 253.768ZM101.054 257.829C100.724 259.591 99.3054 266.713 97.9007 273.653C96.496 280.594 95.6835 286.609 96.0939 287.019C98.0569 288.982 129.366 290.407 129.366 288.534C129.366 287.679 115.376 269.637 113.014 267.446C112.668 267.125 110.391 264.108 107.954 260.743C105.516 257.378 103.101 254.623 102.587 254.623C102.074 254.623 101.384 256.066 101.054 257.829ZM247.686 288.419C238.71 290.845 228.453 293.475 224.892 294.261C218.637 295.643 218.306 295.913 215.069 302.26C211.109 310.027 205.106 320.44 199.699 328.922L195.807 335.028L203.095 340.343C218.363 351.477 240.876 361.817 253.647 363.561C273.576 366.282 280.913 351.462 275.663 319.09C274.061 309.212 267.032 286.826 264.914 284.852C264.414 284.388 256.662 285.992 247.686 288.419ZM180.074 299.804C170.457 300.734 161.802 301.752 160.84 302.064C159.636 302.456 162.717 306.078 170.749 313.708C177.16 319.799 183.281 325.255 184.351 325.831C185.949 326.691 187.321 325.167 192.058 317.271C202.149 300.444 203.253 297.613 199.6 297.933C198.477 298.031 189.691 298.872 180.074 299.804ZM93.7263 306.63C93.2449 310.404 93.4104 319.786 94.0947 327.48C96.1451 350.523 103.713 369.056 113.046 373.891C121.119 378.071 134.726 374.715 149.526 364.891C156.466 360.284 170.276 347.263 175.334 340.557L178.659 336.148L173.538 331.872C170.722 329.521 162.647 321.999 155.594 315.156L142.771 302.716L126.451 301.993C117.475 301.595 106.638 300.932 102.367 300.519L94.6017 299.768L93.7263 306.63Z" fill="#00ccec"/>
</svg>
