<svg width="551" height="1019" viewBox="0 0 551 1019" fill="none" xmlns="http://www.w3.org/2000/svg">
<path fill-rule="evenodd" clip-rule="evenodd" d="M268.174 593.518C262.111 594.527 255.766 597.971 250.772 602.966C239.035 614.705 237.322 629.473 245.898 645.003C247.425 647.769 254.382 653.811 258.341 655.81C264.626 658.984 273.103 660.933 286.39 662.261C300.938 663.715 305.935 666.339 310.991 675.18C314.039 680.51 315.014 685.148 315.014 694.326C315.014 703.433 313.998 708.409 311.069 713.645C308.489 718.256 305.944 720.945 302.262 722.949C298.493 725.001 295.468 725.694 286.39 726.584C274.424 727.756 264.46 730.002 258.696 732.825C248.696 737.722 241.617 748.475 240.634 760.26C239.383 775.261 250.59 790.658 265.807 794.84C270.483 796.126 280.407 795.985 285.104 794.566C299.45 790.232 306.936 779.42 311.44 756.526C313.991 743.559 316.109 739.204 321.693 735.444C325.256 733.045 329.198 731.99 339.135 730.779C349.402 729.527 359.574 727.567 364.37 725.916C373.645 722.726 381.635 714.634 384.464 705.569C388 694.243 386.04 682.169 379.284 673.651C374.856 668.067 370.374 665.056 362.935 662.664C356.634 660.638 353.334 659.99 341.386 658.43C326.101 656.435 323.198 655.476 318.656 650.922C315.085 647.342 313.396 642.963 311.496 632.363C310.253 625.425 307.302 615.897 304.724 610.494C298.786 598.051 283.528 590.963 268.174 593.518ZM193.515 662.008C178.821 665.96 168.357 679.586 168.357 694.766C168.357 713.46 183.436 728.541 202.127 728.541C220.728 728.541 235.896 713.37 235.896 694.766C235.896 679.313 225.449 665.917 210.345 662.002C205.553 660.76 198.144 660.763 193.515 662.008ZM113.119 729.556C91.9693 735.245 81.7709 758.847 92.013 778.399C96.2468 786.482 105.729 793.596 114.774 795.474C119.762 796.51 127.898 795.946 132.908 794.218C156.252 786.165 163.151 755.893 145.604 738.514C141.185 734.137 134.506 730.356 129.249 729.255C124.635 728.289 117.322 728.425 113.119 729.556ZM418.518 729.471C410.203 731.764 401.139 739.042 397.42 746.411C386.108 768.822 400.589 794.494 425.354 795.937C435.239 796.512 444.175 793.117 451.072 786.165C469.565 767.523 460.985 736.141 435.587 729.524C431.106 728.357 422.649 728.331 418.518 729.471Z" fill="black"/>
<path fill-rule="evenodd" clip-rule="evenodd" d="M197.98 208.614C182.154 212.661 174.175 221.844 169.847 240.997C167.359 252.007 167.604 275.891 170.363 291.346C171.527 297.864 172.48 303.767 172.48 304.464C172.48 305.169 167.91 307.361 162.193 309.398C149.59 313.888 130.624 323.35 123.129 328.887C114.351 335.372 106.667 343.871 103.181 350.953C100.429 356.543 99.9825 358.51 100.001 364.976C100.019 371.262 100.508 373.482 102.98 378.497C108.655 390.013 123.72 402.77 142.462 411.929C150.457 415.836 151.85 416.403 164.808 421.028C169.114 422.565 172.802 423.986 173.003 424.188C173.204 424.389 172.951 426.341 172.439 428.525C168.557 445.103 167.396 473.062 170.016 486.874C172.809 501.599 180.189 513.693 189.238 518.372C193.671 520.665 203.197 521.85 209.98 520.953C226.856 518.722 242.852 510.405 265.368 492.158C272.451 486.418 276.186 483.994 277.008 484.602C277.674 485.094 281.315 488.121 285.1 491.329C294.807 499.556 309.631 509.264 319.536 513.88C331.201 519.317 339.96 521.344 349.376 520.787C365.989 519.803 374.921 511.397 380.7 491.306C383.853 480.347 383.815 454.105 380.623 436.562C379.428 429.997 378.795 424.331 379.215 423.969C379.636 423.608 383.58 422.079 387.98 420.571C408.195 413.644 426.876 402.839 438.06 391.607C447.579 382.047 450.9 375.184 450.946 364.982C450.975 358.512 450.536 356.564 447.782 350.965C439.927 334.993 420.387 321.13 389.48 309.601C383.155 307.242 378.048 304.903 378.131 304.404C378.213 303.905 379.104 298.997 380.11 293.497C381.501 285.897 381.938 278.576 381.932 262.997C381.924 243.338 381.812 242.163 379.196 234.365C374.823 221.331 367.967 213.423 358.006 209.922C346.608 205.916 333.578 208.116 315.757 217.057C307.158 221.371 290.11 232.794 284.42 238.055C283.562 238.848 281.242 241.008 279.262 242.855L275.663 246.212L267.946 239.629C252.574 226.512 234.121 215.392 220.434 210.996C214.013 208.934 201.797 207.638 197.98 208.614ZM199.422 224.945C188.838 228.157 184.29 239.808 184.381 263.479C184.423 274.542 187.395 299.245 188.86 300.71C189.054 300.904 193.66 300.092 199.096 298.906C204.532 297.72 214.589 296.008 221.444 295.102L233.908 293.454L241.049 284.244C247.908 275.398 252.543 269.967 260.35 261.627L263.972 257.757L259.476 253.837C243.492 239.902 226.569 229.68 213.5 226.066C205.56 223.87 203.505 223.706 199.422 224.945ZM333.955 226.768C320.952 231.189 306.559 240.232 292.514 252.804L287.047 257.697L294.102 265.597C297.983 269.942 304.789 278.016 309.227 283.538L317.295 293.579L327.638 294.849C333.326 295.547 343.339 297.219 349.889 298.564C356.44 299.909 361.935 300.875 362.099 300.711C363.272 299.539 365.752 280.041 366.198 268.482C366.836 251.97 365.578 242.827 361.475 234.15C356.559 223.755 348.877 221.695 333.955 226.768ZM269.857 275.247C265.219 280.065 258.584 288.078 257.231 290.497C256.866 291.148 263.233 291.497 275.477 291.497C291.896 291.497 294.176 291.307 293.451 289.997C292.098 287.552 276.486 269.997 275.665 269.997C275.25 269.997 272.637 272.36 269.857 275.247ZM246.456 308.712C243.297 309.051 242.415 309.891 237.967 316.794C223.759 338.843 211.017 363.065 211.882 366.379C212.944 370.446 228.663 398.586 236.024 409.594L243.445 420.691L254.118 421.344C267.724 422.176 283.256 422.175 296.899 421.34L307.63 420.684L312.415 413.59C320.108 402.184 325.061 393.776 332.639 379.261C339.579 365.965 339.721 365.551 338.462 362.072C335.856 354.865 317.969 323.465 311.019 313.896C308.077 309.845 307.112 309.218 302.939 308.646C298.076 307.98 252.778 308.032 246.456 308.712ZM204.755 314.394C199.132 315.614 194.196 316.948 193.786 317.357C193.041 318.102 197.067 331.308 200.767 340.256L202.734 345.016L209.425 332.756C213.105 326.014 217.329 318.585 218.81 316.247L221.505 311.997L218.242 312.086C216.447 312.134 210.379 313.173 204.755 314.394ZM332.995 317.747C334.899 320.909 339.039 328.098 342.195 333.721C345.35 339.344 348.292 343.585 348.731 343.146C349.987 341.89 357.582 318.706 357.127 317.519C356.731 316.489 336.038 311.997 331.686 311.997C329.632 311.997 329.693 312.264 332.995 317.747ZM165.48 325.373C138.748 335.704 119.839 349.392 116.388 360.91C114.532 367.104 117.171 372.928 125.488 380.997C132.572 387.869 141.133 393.368 153.48 398.978C160.854 402.328 175.372 407.986 176.612 407.993C176.96 407.995 179.099 402.421 181.366 395.605C183.632 388.789 187.239 379.003 189.381 373.857C192.979 365.213 193.168 364.295 191.871 361.786C190.122 358.404 180.278 331.998 178.622 326.247C177.135 321.081 176.668 321.05 165.48 325.373ZM372.677 324.747C372.102 326.259 370.629 330.647 369.403 334.497C368.178 338.347 365.218 346.379 362.827 352.346C360.436 358.312 358.48 363.777 358.48 364.489C358.48 365.202 360.328 370.445 362.587 376.141C364.847 381.837 368.272 391.222 370.198 396.997C372.124 402.772 373.836 407.645 374.002 407.825C374.321 408.173 385.236 404.319 391.98 401.478C414.077 392.171 429.034 381.104 433.486 370.767C435.49 366.115 435.621 364.992 434.608 361.194C433.27 356.181 432.654 355.294 425.98 348.767C419.775 342.698 410.433 336.508 399.98 331.537C391.189 327.357 377.196 321.997 375.073 321.997C374.33 321.997 373.252 323.235 372.677 324.747ZM263.061 334.477C237.024 345.181 235.764 381.36 260.98 394.232C278.902 403.381 301.85 393.03 306.936 373.504C308.974 365.679 308.886 362.522 306.404 354.488C304.707 348.991 303.296 346.72 298.654 342.007C288.862 332.065 275.701 329.281 263.061 334.477ZM200.7 389.744C198.181 395.644 193.086 411.938 193.601 412.446C194.383 413.22 220.652 418.158 221.179 417.631C221.482 417.328 220.127 414.665 218.167 411.713C216.208 408.761 211.932 401.541 208.667 395.668L202.729 384.991L200.7 389.744ZM345.477 389.779C344.121 392.374 340.375 398.99 337.154 404.481C328.324 419.538 328.731 418.214 333.164 417.485C348.247 415.007 357.478 412.572 357.445 411.08C357.399 408.935 349.836 386.953 348.783 385.9C348.321 385.438 346.833 387.183 345.477 389.779ZM355.98 429.659C348.483 431.244 328.674 434.634 321.842 435.501C317.162 436.096 316.409 436.568 313.356 440.825C311.514 443.395 304.953 451.442 298.777 458.708L287.548 471.919L295.242 478.629C317.649 498.17 343.66 509.092 354.477 503.498C362.539 499.329 366.717 486.675 366.691 466.497C366.675 454.77 364.777 437.629 362.753 430.944L361.98 428.39L355.98 429.659ZM187.014 437.747C184.48 450.925 183.895 474.7 185.875 483.997C189.096 499.12 194.308 504.997 204.498 504.997C217.431 504.997 233.644 496.942 254.23 480.287C259.317 476.171 263.478 472.509 263.477 472.15C263.476 471.791 261.233 469.022 258.491 465.997C255.749 462.972 249.198 455.064 243.935 448.423L234.366 436.348L222.674 434.604C216.241 433.645 206.559 431.991 201.156 430.929C195.754 429.866 190.739 428.997 190.014 428.997C189.153 428.997 188.114 432.026 187.014 437.747ZM260.092 442.747C262.212 445.36 265.38 449.072 267.132 450.997C268.884 452.922 271.287 455.735 272.471 457.247C273.656 458.759 274.978 459.997 275.408 459.997C276.067 459.997 288.948 445.477 293.373 439.747C294.65 438.094 293.657 437.997 275.482 437.997H256.238L260.092 442.747Z" fill="black"/>
<path fill-rule="evenodd" clip-rule="evenodd" d="M0.166117 1C0.506117 1.55 0.982117 2 1.22512 2C1.46812 2 1.66612 1.55 1.66612 1C1.66612 0.45 1.18912 0 0.607117 0C0.0251172 0 -0.173883 0.45 0.166117 1ZM12.3041 1.5C12.6211 2.325 13.2341 3 13.6661 3C14.0981 3 14.7111 2.325 15.0281 1.5C15.4171 0.485 14.9771 0 13.6661 0C12.3551 0 11.9151 0.485 12.3041 1.5ZM24.2691 1.167C24.5521 1.625 25.2071 2 25.7251 2C26.2431 2 26.6661 1.625 26.6661 1.167C26.6661 0.708 26.0111 0.333 25.2101 0.333C24.4091 0.333 23.9861 0.708 24.2691 1.167ZM532.664 1.25C532.665 1.663 537.278 1.928 542.916 1.84C553.579 1.673 552.369 1.244 539.914 0.774C535.925 0.623 532.663 0.837 532.664 1.25ZM88.1661 16.97C87.0661 17.429 83.5581 18.376 80.3691 19.073C77.1811 19.771 74.3421 20.715 74.0601 21.171C73.7791 21.627 72.9051 22 72.1201 22C69.4981 22 56.5331 30.438 51.3181 35.538C42.9221 43.749 35.8681 54.79 32.1751 65.5C28.1711 77.11 27.6661 82.603 27.6661 114.509C27.6661 144.436 27.5961 145.563 25.6661 146.768C23.7721 147.951 23.6661 149.1 23.6661 168.5C23.6661 187.9 23.7721 189.049 25.6661 190.232C27.5641 191.417 27.6661 192.564 27.6661 212.673C27.6661 232.987 27.5831 233.892 25.6661 234.5C23.7151 235.119 23.6661 236.013 23.6661 270.951C23.6661 305.926 23.7131 306.779 25.6661 307.29C27.4611 307.759 27.6661 308.654 27.6661 316C27.6661 323.346 27.4611 324.241 25.6661 324.71C23.7131 325.221 23.6661 326.074 23.6661 361.049C23.6661 395.987 23.7151 396.881 25.6661 397.5C27.6601 398.133 27.6661 399.013 27.6661 674.818C27.6661 971.1 27.4201 956.037 32.4891 970.3C35.9321 979.989 41.3981 988.628 48.9661 996.342C59.8131 1007.4 72.1011 1013.82 88.2261 1016.86C96.5731 1018.43 443.095 1018.49 450.84 1016.92C479.765 1011.06 498.774 994.684 508.812 966.993L511.166 960.5L511.426 634.364C511.686 309.749 511.696 308.225 513.676 307.708C515.617 307.2 515.666 306.282 515.666 270.161C515.666 234.013 515.619 233.12 513.666 232.5C511.689 231.873 511.666 230.987 511.666 156.89C511.666 92.562 511.442 80.821 510.09 74.208C508.317 65.54 501.925 51.831 496.942 46.009C495.14 43.904 493.666 41.748 493.666 41.218C493.666 39.912 486.254 33.178 480.353 29.124C474.884 25.366 465.308 20.944 458.666 19.108C456.191 18.424 452.784 17.445 451.095 16.932C447.233 15.76 90.9761 15.797 88.1661 16.97ZM452.05 23.065C470.282 27.78 479.318 33.268 489.699 45.932C497.012 54.853 501.805 63.721 504.413 73.159C506.071 79.157 506.166 103.194 506.166 517.5C506.166 927.732 506.058 955.892 504.455 961.677C497.829 985.605 479.855 1003.65 456.385 1009.94C448.664 1012.01 448.143 1012.02 267.904 1011.71C141.158 1011.5 85.8511 1011.08 82.7631 1010.31C80.3411 1009.71 74.4911 1007.26 69.7631 1004.88C58.2171 999.066 46.7931 987.811 41.4641 977C37.9181 969.808 37.1001 967.545 34.7311 958.384C33.2161 952.53 33.2311 82.391 34.7451 76.616C37.2791 66.952 38.2341 64.207 40.8721 59C44.7731 51.3 55.2211 38.63 61.1661 34.389C68.8901 28.879 75.0571 26.149 86.6661 23.1C91.8461 21.739 446.793 21.705 452.05 23.065ZM268.666 46C268.666 46.55 269.926 47 271.466 47C273.006 47 274.806 47.54 275.466 48.2C277.253 49.987 276.919 55.087 274.916 56.608C273.638 57.578 273.541 57.945 274.556 57.968C276.406 58.011 278.595 55.015 278.634 52.386C278.677 49.562 273.98 45 271.03 45C269.73 45 268.666 45.45 268.666 46ZM265.666 49C265.666 50.1 265.839 51 266.049 51C266.26 51 266.668 50.1 266.956 49C267.243 47.9 267.071 47 266.572 47C266.074 47 265.666 47.9 265.666 49ZM265.666 55.531C265.666 56.374 266.36 57.329 267.209 57.655C269.47 58.522 269.588 57.744 267.499 55.75C265.948 54.269 265.666 54.236 265.666 55.531ZM187.302 78.636C183.925 82.014 183.909 85.946 187.255 89.923C189.295 92.348 190.636 93 193.581 93C198.644 93 201.666 89.771 201.666 84.36C201.666 76.473 192.942 72.997 187.302 78.636ZM198.722 79.25C201.026 82.011 201.18 85.821 199.109 88.777C197.269 91.405 190.421 91.898 188.095 89.571C186.129 87.605 186.3 81.451 188.388 79.011C190.8 76.195 196.279 76.321 198.722 79.25ZM232.916 81.674C230.006 83.704 230.069 85.379 233.131 87.385C235.284 88.796 240.138 89 271.572 89C294.477 89 307.773 88.637 308.166 88C308.574 87.34 295.999 87 271.194 87C238.562 87 233.527 86.8 233.023 85.487C232.703 84.655 233.007 83.295 233.696 82.464C234.781 81.157 239.91 80.99 271.713 81.226C291.933 81.377 308.267 81.162 308.012 80.75C307.757 80.338 291.262 80.024 271.357 80.052C240.155 80.098 234.856 80.321 232.916 81.674ZM309.376 84C309.089 85.1 309.261 86 309.76 86C310.258 86 310.666 85.1 310.666 84C310.666 82.9 310.493 82 310.283 82C310.072 82 309.664 82.9 309.376 84ZM55.8661 140.2C54.1171 141.949 54.1171 898.051 55.8661 899.8C57.6131 901.547 482.719 901.547 484.466 899.8C485.395 898.871 485.666 813.218 485.666 520.382C485.666 312.362 485.393 141.452 485.059 140.582C484.508 139.146 464.697 139 270.759 139C105.887 139 56.7921 139.274 55.8661 140.2ZM483.059 142.582C483.975 144.969 483.757 896.308 482.84 897.752C482.207 898.75 438.897 898.953 269.606 898.752L57.1661 898.5L56.9101 521C56.7691 313.375 56.8681 142.938 57.1291 142.25C57.5061 141.255 101.008 141 270.028 141C462.808 141 482.508 141.146 483.059 142.582ZM27.6661 168.5C27.6661 180.833 27.2981 188 26.6661 188C26.0341 188 25.6661 180.833 25.6661 168.5C25.6661 156.167 26.0341 149 26.6661 149C27.2981 149 27.6661 156.167 27.6661 168.5ZM513.666 270C513.666 292.667 513.314 305 512.666 305C512.018 305 511.666 292.667 511.666 270C511.666 247.333 512.018 235 512.666 235C513.314 235 513.666 247.333 513.666 270ZM27.6661 271C27.6661 293 27.3131 305 26.6661 305C26.0191 305 25.6661 293 25.6661 271C25.6661 249 26.0191 237 26.6661 237C27.3131 237 27.6661 249 27.6661 271ZM27.6661 361C27.6661 383 27.3131 395 26.6661 395C26.0191 395 25.6661 383 25.6661 361C25.6661 339 26.0191 327 26.6661 327C27.3131 327 27.6661 339 27.6661 361ZM262.666 915.669C260.741 915.93 258.738 916.561 258.216 917.071C257.694 917.582 256.656 918 255.911 918C253.289 918 242.717 926.066 239.843 930.259C233.642 939.306 232.593 942.692 232.588 953.697C232.585 959.305 233.014 964.705 233.54 965.697C234.067 966.689 235.206 969.134 236.073 971.131C239.932 980.032 252.388 989.59 262.666 991.538C284.406 995.659 304.279 981.868 308.7 959.593C311.759 944.184 302.306 926.376 287.202 919.091C280.597 915.906 270.907 914.554 262.666 915.669ZM282.116 919.06C282.638 919.577 283.682 920 284.436 920C285.952 920 293.046 924.706 296.166 927.783C299.489 931.059 301.048 933.273 303.666 938.433C305.842 942.722 306.166 944.669 306.166 953.451C306.166 962.819 305.933 964.016 302.91 970.156C297.753 980.631 288.856 987.097 275.666 989.955C269.621 991.265 261.618 989.969 254.3 986.496C247.904 983.461 240.932 976.342 237.678 969.525C234.947 963.803 234.666 962.276 234.666 953.166C234.666 947.546 235.107 942.846 235.666 942.5C236.216 942.16 236.666 941.202 236.666 940.371C236.666 938.409 241.887 930.846 246.262 926.471C249.917 922.816 256.911 919.155 262.666 917.886C266.971 916.937 280.815 917.772 282.116 919.06Z" fill="black"/>
</svg>
