<svg aria-hidden="true" style="position: absolute; width: 0; height: 0; overflow: hidden;" version="1.1" xmlns="http://www.w3.org/2000/svg" xmlns:xlink="http://www.w3.org/1999/xlink">
<defs>
<symbol id="icon-icon-lens" viewBox="0 0 32 32">
<path d="M9.422 0.071c1.007-0.164 3.156-0.030 4.297 0.267 3.568 0.93 6.479 3.63 7.664 7.11 0.566 1.661 0.722 3.806 0.401 5.5-0.157 0.828-0.156 0.861 0.052 1.125 0.404 0.514 0.24 1.16-0.7 2.751-0.257 0.435-0.634 0.995-0.839 1.244l-0.372 0.454 1.636 1.644 0.259-0.203c0.143-0.113 0.421-0.203 0.622-0.203 0.31 0 0.514 0.135 1.381 0.916 5.656 5.095 7.845 7.102 7.999 7.337 0.209 0.319 0.237 0.764 0.068 1.097-0.167 0.328-2.397 2.57-2.734 2.748-0.406 0.215-0.827 0.185-1.202-0.086-0.179-0.13-2.088-2.182-4.241-4.561-3.438-3.798-3.919-4.371-3.949-4.701-0.023-0.252 0.035-0.469 0.175-0.658l0.209-0.282-1.627-1.616-0.742 0.557c-0.954 0.716-2.62 1.551-3.095 1.551-0.204 0-0.478-0.093-0.632-0.214-0.264-0.208-0.298-0.209-1.126-0.052-1.086 0.206-2.872 0.207-3.948 0.003-4.254-0.806-7.595-3.925-8.689-8.112-0.254-0.971-0.287-1.288-0.287-2.722 0.001-1.325 0.042-1.781 0.227-2.486 1.189-4.53 4.616-7.665 9.194-8.41zM9.701 1.979c-4.822 0.69-8.374 5.255-7.777 9.994 0.283 2.242 1.18 4.056 2.743 5.541 0.85 0.808 1.465 1.225 2.535 1.719 1.337 0.617 2.191 0.789 3.843 0.776 1.652-0.013 2.526-0.208 3.898-0.866 4.428-2.125 6.345-7.573 4.23-12.021-1.359-2.859-3.927-4.718-7.114-5.153-0.935-0.127-1.418-0.126-2.359 0.009zM9.104 3.311c-1.662 0.409-3.927 1.843-3.927 2.487 0 0.188 0.378 0.562 0.568 0.562 0.082 0 0.424-0.237 0.76-0.527 0.784-0.676 2.074-1.316 3.074-1.526 1.019-0.214 2.406-0.142 3.442 0.179 0.799 0.247 0.978 0.225 1.214-0.148 0.548-0.868-2.938-1.565-5.131-1.027zM17.334 7.931c-0.086 0.16-0.061 0.376 0.108 0.916 0.121 0.388 0.246 1.036 0.278 1.439s0.125 0.839 0.206 0.968c0.2 0.32 0.614 0.308 0.831-0.023 0.148-0.226 0.155-0.373 0.052-1.143-0.119-0.893-0.431-1.962-0.648-2.224-0.182-0.219-0.695-0.177-0.826 0.068z"></path>
</symbol>
</defs>
</svg>
