<svg aria-hidden="true" style="position: absolute; width: 0; height: 0; overflow: hidden;" version="1.1" xmlns="http://www.w3.org/2000/svg" xmlns:xlink="http://www.w3.org/1999/xlink">
<defs>
<symbol id="icon-react-router-movies" viewBox="0 0 100 32">
<path d="M16.542 8.655c-0.428 0.071-0.877 0.315-1.229 0.667-0.829 0.829-0.95 1.872-0.344 2.97 0.108 0.195 0.599 0.622 0.879 0.763 0.444 0.224 1.043 0.362 1.981 0.456 1.028 0.103 1.381 0.288 1.738 0.913 0.215 0.377 0.284 0.704 0.284 1.352 0 0.643-0.072 0.995-0.279 1.365-0.182 0.326-0.362 0.516-0.622 0.657-0.266 0.145-0.48 0.194-1.121 0.257-0.845 0.083-1.549 0.241-1.956 0.441-0.706 0.346-1.206 1.106-1.276 1.938-0.088 1.060 0.703 2.147 1.778 2.443 0.33 0.091 1.031 0.081 1.363-0.019 1.013-0.306 1.542-1.070 1.86-2.687 0.18-0.916 0.33-1.224 0.724-1.489 0.252-0.169 0.53-0.244 1.232-0.33 0.725-0.088 1.444-0.227 1.783-0.344 0.655-0.225 1.22-0.797 1.419-1.437 0.25-0.8 0.111-1.653-0.366-2.255-0.313-0.394-0.629-0.607-1.155-0.776-0.445-0.143-0.678-0.189-1.522-0.299-1.080-0.141-1.285-0.209-1.606-0.53-0.252-0.253-0.372-0.562-0.506-1.311-0.088-0.49-0.296-1.163-0.478-1.545-0.419-0.879-1.497-1.38-2.582-1.199zM11.268 13.493c-1.038 0.279-1.777 1.242-1.777 2.314 0 1.321 1.065 2.386 2.386 2.386 1.314 0 2.385-1.072 2.385-2.386 0-1.092-0.738-2.038-1.805-2.314-0.338-0.088-0.862-0.088-1.189 0zM5.589 18.264c-1.494 0.402-2.214 2.069-1.491 3.45 0.299 0.571 0.969 1.074 1.608 1.206 0.352 0.073 0.927 0.033 1.281-0.089 1.649-0.569 2.136-2.707 0.897-3.935-0.312-0.309-0.784-0.576-1.155-0.654-0.326-0.068-0.843-0.059-1.139 0.021zM27.162 18.258c-0.587 0.162-1.228 0.676-1.49 1.197-0.799 1.583 0.224 3.397 1.973 3.499 0.698 0.041 1.33-0.199 1.817-0.69 1.306-1.317 0.7-3.534-1.094-4.001-0.317-0.082-0.914-0.084-1.206-0.004z"></path>
<path d="M45.84 6.465c0.228-0.058 0.959 0.019 1.342 0.142 0.818 0.263 1.921 0.927 2.84 1.711l0.461 0.393 0.215-0.201c0.118-0.11 0.257-0.239 0.308-0.287 0.34-0.314 1.359-0.997 1.873-1.255 1.065-0.534 1.844-0.666 2.526-0.426 0.595 0.209 1.005 0.682 1.267 1.461 0.156 0.466 0.163 0.536 0.164 1.711 0 0.931-0.026 1.369-0.109 1.823-0.060 0.329-0.113 0.622-0.118 0.652s0.3 0.17 0.678 0.311c1.848 0.689 3.016 1.517 3.485 2.472 0.165 0.335 0.191 0.451 0.189 0.838-0.003 0.61-0.201 1.020-0.77 1.591-0.669 0.671-1.785 1.317-2.994 1.731-0.263 0.090-0.499 0.181-0.524 0.203s0.013 0.36 0.084 0.753c0.191 1.048 0.193 2.617 0.005 3.271-0.346 1.201-0.879 1.703-1.873 1.762-0.563 0.033-1.087-0.088-1.784-0.413-0.592-0.276-1.478-0.856-2.059-1.348-0.226-0.192-0.444-0.373-0.484-0.402-0.049-0.036-0.272 0.109-0.696 0.452-1.346 1.090-2.302 1.587-3.311 1.721-0.406 0.054-0.975-0.017-1.24-0.154-0.541-0.28-0.982-1.002-1.149-1.882-0.157-0.825-0.087-2.496 0.145-3.487 0.031-0.13 0.046-0.247 0.034-0.259s-0.233-0.097-0.49-0.189c-0.775-0.276-0.858-0.31-1.336-0.544-1.12-0.547-2.021-1.31-2.36-1.998-0.148-0.3-0.177-0.432-0.178-0.808-0.001-0.386 0.026-0.504 0.19-0.838 0.208-0.423 0.668-0.931 1.192-1.319 0.448-0.331 1.582-0.896 2.335-1.165 0.342-0.122 0.615-0.253 0.615-0.295s-0.057-0.394-0.127-0.784c-0.165-0.924-0.18-2.351-0.031-3.009 0.259-1.145 0.736-1.693 1.682-1.935zM45.926 7.441c-0.633 0.192-0.905 0.888-0.899 2.303 0.002 0.661 0.18 2.137 0.268 2.225 0.012 0.012 0.287-0.037 0.612-0.108s0.926-0.173 1.336-0.227l0.745-0.098 0.427-0.55c0.41-0.529 0.687-0.853 1.154-1.352l0.217-0.231-0.269-0.234c-0.956-0.833-1.967-1.444-2.748-1.66-0.475-0.131-0.598-0.141-0.842-0.067zM53.969 7.55c-0.777 0.264-1.638 0.805-2.477 1.556l-0.327 0.292 0.422 0.472c0.232 0.26 0.639 0.742 0.904 1.072l0.482 0.6 0.618 0.076c0.34 0.042 0.939 0.142 1.33 0.222s0.72 0.138 0.73 0.128c0.070-0.070 0.218-1.235 0.245-1.926 0.038-0.987-0.037-1.533-0.282-2.052-0.294-0.621-0.753-0.744-1.645-0.441zM50.137 10.447c-0.277 0.288-0.674 0.767-0.755 0.911-0.022 0.039 0.359 0.060 1.091 0.060 0.982 0 1.118-0.011 1.075-0.090-0.081-0.146-1.014-1.195-1.063-1.195-0.025 0-0.181 0.141-0.347 0.314zM48.738 12.447c-0.189 0.020-0.242 0.070-0.507 0.483-0.849 1.318-1.611 2.765-1.559 2.963 0.063 0.243 1.003 1.925 1.443 2.582l0.444 0.663 0.638 0.039c0.813 0.050 1.742 0.050 2.558-0l0.641-0.039 0.286-0.424c0.46-0.682 0.756-1.184 1.209-2.051 0.415-0.795 0.423-0.819 0.348-1.027-0.156-0.431-1.225-2.307-1.641-2.879-0.176-0.242-0.234-0.28-0.483-0.314-0.291-0.040-2.999-0.037-3.377 0.004zM46.245 12.786c-0.336 0.073-0.631 0.153-0.656 0.177-0.044 0.044 0.196 0.834 0.417 1.368l0.118 0.284 0.4-0.733c0.22-0.403 0.472-0.847 0.561-0.987l0.161-0.254-0.195 0.005c-0.107 0.003-0.47 0.065-0.806 0.138zM53.911 12.987c0.114 0.189 0.361 0.619 0.55 0.955s0.364 0.589 0.391 0.563c0.075-0.075 0.529-1.46 0.502-1.531-0.024-0.062-1.261-0.33-1.521-0.33-0.123 0-0.119 0.016 0.078 0.344zM43.897 13.442c-1.598 0.617-2.728 1.435-2.935 2.124-0.111 0.37 0.047 0.718 0.544 1.2 0.423 0.411 0.935 0.739 1.673 1.075 0.441 0.2 1.309 0.538 1.383 0.539 0.021 0 0.149-0.333 0.284-0.74s0.351-0.992 0.479-1.3c0.215-0.517 0.226-0.571 0.149-0.721-0.105-0.202-0.693-1.78-0.792-2.124-0.089-0.309-0.117-0.311-0.786-0.052zM56.283 13.405c-0.034 0.090-0.122 0.353-0.196 0.583s-0.25 0.71-0.393 1.067c-0.143 0.357-0.26 0.683-0.26 0.726s0.11 0.356 0.246 0.696c0.135 0.34 0.34 0.901 0.455 1.246s0.218 0.636 0.227 0.647c0.019 0.021 0.672-0.21 1.075-0.379 1.321-0.556 2.215-1.218 2.481-1.835 0.12-0.278 0.128-0.345 0.067-0.572-0.080-0.3-0.117-0.353-0.516-0.743-0.371-0.363-0.929-0.733-1.554-1.030-0.526-0.25-1.362-0.57-1.489-0.57-0.044 0-0.109 0.074-0.143 0.164zM49.73 13.986c-1.557 0.64-1.632 2.802-0.124 3.571 1.071 0.547 2.443-0.072 2.747-1.239 0.122-0.468 0.117-0.656-0.032-1.136-0.102-0.328-0.186-0.464-0.463-0.746-0.585-0.594-1.372-0.761-2.128-0.45zM46.002 17.289c-0.151 0.353-0.455 1.326-0.424 1.357 0.047 0.046 1.617 0.341 1.649 0.31 0.018-0.018-0.063-0.177-0.18-0.354s-0.373-0.608-0.568-0.959l-0.355-0.638-0.121 0.284zM54.657 17.291c-0.081 0.155-0.305 0.55-0.497 0.879-0.528 0.9-0.504 0.821-0.239 0.777 0.902-0.148 1.454-0.294 1.452-0.383-0.003-0.128-0.455-1.442-0.518-1.505-0.028-0.028-0.117 0.077-0.198 0.232zM55.285 19.674c-0.448 0.095-1.632 0.297-2.041 0.349-0.28 0.036-0.325 0.064-0.507 0.318-0.11 0.154-0.502 0.634-0.872 1.069l-0.671 0.789 0.46 0.401c1.34 1.168 2.895 1.82 3.541 1.486 0.482-0.249 0.732-1.005 0.73-2.211-0.001-0.701-0.114-1.725-0.235-2.125l-0.046-0.153-0.359 0.076zM45.184 20.158c-0.152 0.788-0.187 2.208-0.068 2.764 0.193 0.904 0.504 1.255 1.113 1.255 0.773 0 1.742-0.481 2.973-1.477 0.304-0.246 0.553-0.465 0.553-0.486s-0.134-0.187-0.298-0.368c-0.164-0.181-0.556-0.653-0.87-1.050l-0.572-0.722-0.699-0.104c-0.385-0.057-0.963-0.156-1.286-0.22s-0.623-0.115-0.666-0.115c-0.051 0-0.114 0.181-0.179 0.523zM49.553 20.456c0.127 0.156 0.316 0.378 0.421 0.493s0.248 0.283 0.319 0.373c0.071 0.090 0.15 0.164 0.176 0.164 0.039 0 0.809-0.868 1.074-1.21 0.076-0.099 0.017-0.105-1.070-0.105h-1.15l0.23 0.284z"></path>
<path d="M0.020 0.076c-0.018 0.049-0.025 7.241-0.015 15.982l0.018 15.894h33.978v-31.929l-16.974-0.018c-13.542-0.014-16.98 0-17.007 0.071zM3.433 1.228c0.148 0.103 0.157 0.161 0.157 0.966 0 1.144 0.030 1.114-1.106 1.114-1.161 0-1.155 0.006-1.154-1.077 0.001-0.832 0.017-0.898 0.246-1.028 0.226-0.128 1.665-0.109 1.856 0.026zM8.364 1.29c0.072 0.099 0.1 0.358 0.1 0.936 0 1.086 0.005 1.081-1.142 1.081s-1.118 0.030-1.118-1.102c0-1.125-0.023-1.104 1.189-1.074 0.766 0.019 0.883 0.038 0.971 0.159zM13.111 1.228c0.149 0.104 0.157 0.16 0.157 1.022 0 0.829-0.012 0.918-0.137 0.985-0.075 0.040-0.51 0.073-0.966 0.073-1.113 0-1.087 0.026-1.087-1.102 0-1.102-0.014-1.088 1.095-1.088 0.592 0 0.819 0.027 0.938 0.11zM17.882 1.199c0.243 0.128 0.258 0.189 0.259 1.031 0.001 1.080 0.004 1.077-1.129 1.077s-1.131 0.003-1.129-1.077c0.001-0.832 0.017-0.898 0.246-1.028 0.187-0.106 1.553-0.109 1.753-0.003zM22.788 1.228c0.148 0.104 0.157 0.161 0.157 0.984 0 0.7-0.022 0.896-0.111 0.985s-0.282 0.111-0.958 0.111c-0.466 0-0.909-0.033-0.984-0.073-0.124-0.067-0.137-0.156-0.137-0.985 0-1.152-0.020-1.132 1.095-1.132 0.592 0 0.819 0.027 0.938 0.11zM27.662 1.228c0.148 0.104 0.157 0.161 0.157 0.985 0 1.116 0.022 1.095-1.146 1.095-1.116 0-1.114 0.001-1.114-1.081 0-0.804 0.046-0.975 0.283-1.059 0.058-0.021 0.456-0.040 0.885-0.043 0.598-0.004 0.816 0.020 0.936 0.104zM32.433 1.199c0.243 0.128 0.258 0.189 0.259 1.031 0.001 1.082 0.006 1.077-1.141 1.077-1.148 0-1.118 0.030-1.118-1.102 0-1.1-0.012-1.088 1.080-1.088 0.441 0 0.831 0.034 0.92 0.081zM31.543 4.552c0.427 0.145 0.805 0.414 1.019 0.727l0.167 0.243v20.943l-0.215 0.305c-0.144 0.204-0.352 0.376-0.631 0.518l-0.416 0.213h-28.912l-0.416-0.213c-0.278-0.142-0.487-0.314-0.631-0.518l-0.215-0.305v-20.943l0.167-0.243c0.21-0.306 0.588-0.58 0.999-0.723 0.285-0.099 1.798-0.111 14.532-0.114 12.923-0.003 14.245 0.007 14.552 0.111zM3.433 28.777c0.148 0.103 0.157 0.161 0.157 0.966 0 1.144 0.030 1.114-1.106 1.114-1.161 0-1.155 0.006-1.154-1.077 0.001-0.832 0.017-0.898 0.246-1.028 0.226-0.128 1.665-0.109 1.856 0.026zM8.364 28.84c0.072 0.099 0.1 0.358 0.1 0.936 0 1.083 0.001 1.081-1.114 1.081-1.168 0-1.146 0.021-1.146-1.095 0-1.133-0.024-1.111 1.189-1.081 0.766 0.019 0.883 0.038 0.971 0.159zM13.111 28.777c0.149 0.104 0.157 0.16 0.157 1.022 0 0.829-0.012 0.918-0.137 0.985-0.075 0.040-0.51 0.073-0.966 0.073-1.113 0-1.087 0.026-1.087-1.102 0-1.102-0.014-1.088 1.095-1.088 0.592 0 0.819 0.027 0.938 0.11zM17.882 28.749c0.243 0.128 0.258 0.189 0.259 1.031 0.001 1.080 0.004 1.077-1.129 1.077s-1.13 0.003-1.13-1.081c0-0.804 0.046-0.975 0.283-1.059 0.208-0.074 1.564-0.049 1.718 0.032zM22.788 28.777c0.148 0.103 0.157 0.161 0.157 0.966 0 1.14 0.025 1.114-1.075 1.114-0.463 0-0.903-0.033-0.978-0.073-0.124-0.067-0.137-0.156-0.137-0.985 0-1.152-0.020-1.132 1.095-1.132 0.592 0 0.819 0.027 0.938 0.11zM27.662 28.777c0.148 0.104 0.157 0.161 0.157 0.985 0 1.116 0.022 1.095-1.146 1.095-1.116 0-1.114 0.001-1.114-1.081 0-0.804 0.046-0.975 0.283-1.059 0.058-0.021 0.456-0.040 0.885-0.043 0.598-0.004 0.816 0.020 0.936 0.104zM32.433 28.749c0.243 0.128 0.258 0.189 0.259 1.031 0.001 1.082 0.006 1.077-1.141 1.077-1.148 0-1.118 0.030-1.118-1.102 0-1.1-0.012-1.088 1.080-1.088 0.441 0 0.831 0.034 0.92 0.081z"></path>
<path d="M66.21 0.076c-0.019 0.049-0.025 7.241-0.015 15.982l0.018 15.894h33.978v-31.929l-16.973-0.018c-13.542-0.014-16.98 0-17.007 0.071zM69.623 1.228c0.148 0.103 0.157 0.161 0.157 0.966 0 1.144 0.030 1.114-1.106 1.114-1.161 0-1.155 0.006-1.154-1.077 0.001-0.832 0.017-0.898 0.246-1.028 0.226-0.128 1.665-0.109 1.856 0.026zM74.554 1.29c0.073 0.099 0.1 0.358 0.1 0.936 0 1.086 0.005 1.081-1.142 1.081-1.149 0-1.118 0.030-1.118-1.102 0-1.125-0.023-1.104 1.189-1.074 0.766 0.019 0.884 0.038 0.971 0.159zM79.301 1.228c0.148 0.104 0.157 0.16 0.157 1.022 0 0.829-0.012 0.918-0.136 0.985-0.076 0.040-0.51 0.073-0.966 0.073-1.113 0-1.087 0.026-1.087-1.102 0-1.102-0.014-1.088 1.095-1.088 0.593 0 0.819 0.027 0.938 0.11zM84.072 1.199c0.242 0.128 0.258 0.189 0.259 1.031 0.001 1.080 0.004 1.077-1.13 1.077s-1.13 0.003-1.129-1.077c0.001-0.832 0.017-0.898 0.246-1.028 0.187-0.106 1.553-0.109 1.753-0.003zM88.978 1.228c0.148 0.104 0.157 0.161 0.157 0.984 0 0.7-0.022 0.896-0.111 0.985s-0.283 0.111-0.959 0.111c-0.466 0-0.908-0.033-0.984-0.073-0.124-0.067-0.136-0.156-0.136-0.985 0-1.152-0.020-1.132 1.095-1.132 0.593 0 0.819 0.027 0.938 0.11zM93.853 1.228c0.148 0.104 0.157 0.161 0.157 0.985 0 1.116 0.022 1.095-1.146 1.095-1.116 0-1.115 0.001-1.115-1.081 0-0.804 0.045-0.975 0.283-1.059 0.059-0.021 0.456-0.040 0.885-0.043 0.598-0.004 0.815 0.020 0.936 0.104zM98.624 1.199c0.242 0.128 0.258 0.189 0.259 1.031 0.001 1.082 0.006 1.077-1.142 1.077-1.149 0-1.118 0.030-1.118-1.102 0-1.1-0.011-1.088 1.080-1.088 0.441 0 0.831 0.034 0.92 0.081zM97.734 4.552c0.427 0.145 0.805 0.414 1.019 0.727l0.167 0.243v20.943l-0.215 0.305c-0.143 0.204-0.353 0.376-0.631 0.518l-0.416 0.213h-28.912l-0.416-0.213c-0.278-0.142-0.487-0.314-0.631-0.518l-0.215-0.305v-20.943l0.167-0.243c0.21-0.306 0.588-0.58 0.999-0.723 0.285-0.099 1.798-0.111 14.532-0.114 12.923-0.003 14.244 0.007 14.552 0.111zM69.623 28.777c0.148 0.103 0.157 0.161 0.157 0.966 0 1.144 0.030 1.114-1.106 1.114-1.161 0-1.155 0.006-1.154-1.077 0.001-0.832 0.017-0.898 0.246-1.028 0.226-0.128 1.665-0.109 1.856 0.026zM74.554 28.84c0.073 0.099 0.1 0.358 0.1 0.936 0 1.083 0.001 1.081-1.115 1.081-1.168 0-1.146 0.021-1.146-1.095 0-1.133-0.024-1.111 1.189-1.081 0.766 0.019 0.884 0.038 0.971 0.159zM79.301 28.777c0.148 0.104 0.157 0.16 0.157 1.022 0 0.829-0.012 0.918-0.136 0.985-0.076 0.040-0.51 0.073-0.966 0.073-1.113 0-1.087 0.026-1.087-1.102 0-1.102-0.014-1.088 1.095-1.088 0.593 0 0.819 0.027 0.938 0.11zM84.072 28.749c0.242 0.128 0.258 0.189 0.259 1.031 0.001 1.080 0.004 1.077-1.13 1.077s-1.13 0.003-1.13-1.081c0-0.804 0.045-0.975 0.283-1.059 0.208-0.074 1.564-0.049 1.718 0.032zM88.978 28.777c0.148 0.103 0.157 0.161 0.157 0.966 0 1.14 0.025 1.114-1.075 1.114-0.463 0-0.903-0.033-0.978-0.073-0.124-0.067-0.136-0.156-0.136-0.985 0-1.152-0.020-1.132 1.095-1.132 0.593 0 0.819 0.027 0.938 0.11zM93.853 28.777c0.148 0.104 0.157 0.161 0.157 0.985 0 1.116 0.022 1.095-1.146 1.095-1.116 0-1.115 0.001-1.115-1.081 0-0.804 0.045-0.975 0.283-1.059 0.059-0.021 0.456-0.040 0.885-0.043 0.598-0.004 0.815 0.020 0.936 0.104zM98.624 28.749c0.242 0.128 0.258 0.189 0.259 1.031 0.001 1.082 0.006 1.077-1.142 1.077-1.149 0-1.118 0.030-1.118-1.102 0-1.1-0.011-1.088 1.080-1.088 0.441 0 0.831 0.034 0.92 0.081z"></path>
<path d="M33.15 0.076c-0.019 0.049-0.025 7.241-0.015 15.982l0.018 15.894h33.978v-31.929l-16.974-0.018c-13.542-0.014-16.98 0-17.007 0.071zM36.563 1.228c0.148 0.103 0.157 0.161 0.157 0.966 0 1.144 0.030 1.114-1.106 1.114-1.161 0-1.155 0.006-1.154-1.077 0.001-0.832 0.017-0.898 0.246-1.028 0.226-0.128 1.665-0.109 1.856 0.026zM41.494 1.29c0.072 0.099 0.1 0.358 0.1 0.936 0 1.086 0.005 1.081-1.142 1.081s-1.118 0.030-1.118-1.102c0-1.125-0.023-1.104 1.189-1.074 0.766 0.019 0.883 0.038 0.971 0.159zM46.241 1.228c0.148 0.104 0.157 0.16 0.157 1.022 0 0.829-0.012 0.918-0.137 0.985-0.075 0.040-0.51 0.073-0.966 0.073-1.113 0-1.087 0.026-1.087-1.102 0-1.102-0.014-1.088 1.095-1.088 0.592 0 0.819 0.027 0.938 0.11zM51.012 1.199c0.243 0.128 0.258 0.189 0.259 1.031 0.001 1.080 0.004 1.077-1.129 1.077s-1.131 0.003-1.129-1.077c0.001-0.832 0.017-0.898 0.246-1.028 0.187-0.106 1.553-0.109 1.753-0.003zM55.919 1.228c0.148 0.104 0.157 0.161 0.157 0.984 0 0.7-0.022 0.896-0.111 0.985s-0.282 0.111-0.958 0.111c-0.466 0-0.909-0.033-0.984-0.073-0.124-0.067-0.137-0.156-0.137-0.985 0-1.152-0.020-1.132 1.095-1.132 0.592 0 0.819 0.027 0.938 0.11zM60.793 1.228c0.148 0.104 0.157 0.161 0.157 0.985 0 1.116 0.022 1.095-1.146 1.095-1.116 0-1.114 0.001-1.114-1.081 0-0.804 0.045-0.975 0.283-1.059 0.058-0.021 0.456-0.040 0.885-0.043 0.598-0.004 0.816 0.020 0.936 0.104zM65.564 1.199c0.243 0.128 0.258 0.189 0.259 1.031 0.001 1.082 0.006 1.077-1.141 1.077-1.148 0-1.118 0.030-1.118-1.102 0-1.1-0.012-1.088 1.080-1.088 0.441 0 0.832 0.034 0.92 0.081zM64.674 4.552c0.427 0.145 0.805 0.414 1.019 0.727l0.167 0.243v20.943l-0.215 0.305c-0.144 0.204-0.353 0.376-0.631 0.518l-0.416 0.213h-28.912l-0.416-0.213c-0.278-0.142-0.487-0.314-0.631-0.518l-0.215-0.305v-20.943l0.167-0.243c0.21-0.306 0.588-0.58 0.999-0.723 0.285-0.099 1.798-0.111 14.532-0.114 12.923-0.003 14.245 0.007 14.552 0.111zM36.563 28.777c0.148 0.103 0.157 0.161 0.157 0.966 0 1.144 0.030 1.114-1.106 1.114-1.161 0-1.155 0.006-1.154-1.077 0.001-0.832 0.017-0.898 0.246-1.028 0.226-0.128 1.665-0.109 1.856 0.026zM41.494 28.84c0.072 0.099 0.1 0.358 0.1 0.936 0 1.083 0.001 1.081-1.114 1.081-1.168 0-1.146 0.021-1.146-1.095 0-1.133-0.024-1.111 1.189-1.081 0.766 0.019 0.883 0.038 0.971 0.159zM46.241 28.777c0.148 0.104 0.157 0.16 0.157 1.022 0 0.829-0.012 0.918-0.137 0.985-0.075 0.040-0.51 0.073-0.966 0.073-1.113 0-1.087 0.026-1.087-1.102 0-1.102-0.014-1.088 1.095-1.088 0.592 0 0.819 0.027 0.938 0.11zM51.012 28.749c0.243 0.128 0.258 0.189 0.259 1.031 0.001 1.080 0.004 1.077-1.129 1.077s-1.13 0.003-1.13-1.081c0-0.804 0.045-0.975 0.283-1.059 0.208-0.074 1.564-0.049 1.718 0.032zM55.919 28.777c0.148 0.103 0.157 0.161 0.157 0.966 0 1.14 0.025 1.114-1.075 1.114-0.463 0-0.903-0.033-0.978-0.073-0.124-0.067-0.137-0.156-0.137-0.985 0-1.152-0.020-1.132 1.095-1.132 0.592 0 0.819 0.027 0.938 0.11zM60.793 28.777c0.148 0.104 0.157 0.161 0.157 0.985 0 1.116 0.022 1.095-1.146 1.095-1.116 0-1.114 0.001-1.114-1.081 0-0.804 0.045-0.975 0.283-1.059 0.058-0.021 0.456-0.040 0.885-0.043 0.598-0.004 0.816 0.020 0.936 0.104zM65.564 28.749c0.243 0.128 0.258 0.189 0.259 1.031 0.001 1.082 0.006 1.077-1.141 1.077-1.148 0-1.118 0.030-1.118-1.102 0-1.1-0.012-1.088 1.080-1.088 0.441 0 0.832 0.034 0.92 0.081z"></path>
<path d="M75.898 7.609c1.267-0.332 2.584 0.031 3.512 0.968 1.433 1.448 1.432 3.683-0.002 5.121-0.27 0.27-0.6 0.526-0.848 0.655l-0.406 0.211 1.451 0.017c0.798 0.009 2.104 0.009 2.901 0l1.451-0.017-0.366-0.185c-0.469-0.237-1.135-0.856-1.405-1.305-0.9-1.497-0.693-3.298 0.517-4.5 0.782-0.776 1.683-1.128 2.751-1.073 1.513 0.078 2.761 1.009 3.288 2.452 0.187 0.513 0.227 1.527 0.083 2.085-0.247 0.953-0.92 1.82-1.786 2.3l-0.461 0.256 1.154 0.002v1.185h0.78c0.738 0 0.78-0.007 0.78-0.125 0-0.116 0.042-0.125 0.624-0.125h0.624v0.413c0 0.363 0.013 0.409 0.109 0.383 0.060-0.016 1.445-0.525 3.078-1.13s2.987-1.1 3.010-1.1c0.059 0 0.054 7.283-0.004 7.316-0.026 0.015-1.394-0.474-3.042-1.087s-3.030-1.114-3.073-1.114c-0.054-0.001-0.078 0.115-0.078 0.373v0.374h-0.624c-0.513 0-0.624-0.017-0.624-0.094 0-0.078-0.129-0.094-0.783-0.094h-0.784l0.008 1.481c0.004 0.815 0.006 1.587 0.004 1.715l-0.004 0.234h-6.95c-6.426 0-6.952-0.008-6.99-0.104-0.022-0.057-0.037-0.752-0.035-1.544s0.003-2.205 0.002-3.139l-0.002-1.7h-0.804c-0.752 0-0.806 0.008-0.836 0.125-0.030 0.111-0.085 0.125-0.507 0.125h-0.474v-1.31h0.499c0.434 0 0.499 0.014 0.499 0.109 0 0.099 0.074 0.107 0.839 0.090l0.84-0.019-0.038-0.62-0.037-0.62 1.797-0.002-0.46-0.255c-0.866-0.48-1.539-1.341-1.781-2.278-0.126-0.49-0.127-1.362-0.001-1.849 0.201-0.775 0.671-1.484 1.296-1.954 0.496-0.372 0.767-0.507 1.31-0.649zM76.369 8.251c-0.249 0.168-0.41 0.554-0.343 0.823 0.025 0.098 0.136 0.269 0.248 0.381 0.532 0.532 1.348 0.175 1.349-0.589 0.001-0.233-0.034-0.307-0.242-0.515-0.209-0.209-0.28-0.242-0.521-0.242-0.186 0-0.349 0.047-0.491 0.142zM84.729 8.351c-0.208 0.208-0.242 0.281-0.242 0.515 0.001 0.763 0.817 1.121 1.347 0.591s0.173-1.346-0.591-1.347c-0.234-0-0.307 0.034-0.515 0.242zM74.383 9.22c-0.244 0.131-0.441 0.455-0.44 0.727 0.001 0.408 0.396 0.782 0.823 0.78 0.281-0.001 0.487-0.117 0.657-0.368 0.271-0.403 0.126-0.941-0.312-1.149-0.283-0.134-0.464-0.132-0.728 0.010zM78.564 9.216c-0.312 0.159-0.473 0.41-0.467 0.724 0.011 0.479 0.34 0.788 0.841 0.788 0.219 0 0.299-0.038 0.502-0.242 0.213-0.213 0.242-0.278 0.242-0.536 0-0.354-0.173-0.631-0.475-0.757-0.271-0.113-0.385-0.109-0.644 0.023zM82.891 9.195c-0.583 0.253-0.634 1.108-0.086 1.431 0.218 0.129 0.572 0.131 0.817 0.004 0.276-0.143 0.454-0.571 0.369-0.888-0.071-0.266-0.258-0.469-0.522-0.569-0.225-0.085-0.341-0.081-0.578 0.022zM86.99 9.213c-0.483 0.238-0.591 0.898-0.209 1.28 0.501 0.501 1.387 0.124 1.387-0.59 0-0.232-0.211-0.56-0.44-0.682-0.262-0.14-0.463-0.142-0.737-0.007zM76.322 10.21c-0.321 0.158-0.535 0.528-0.535 0.923 0 1.035 1.296 1.42 1.924 0.572 0.1-0.135 0.131-0.268 0.131-0.572 0-0.443-0.105-0.642-0.468-0.889-0.251-0.171-0.741-0.187-1.052-0.035zM84.736 10.245c-0.363 0.247-0.468 0.446-0.468 0.889s0.105 0.642 0.468 0.889c0.252 0.172 0.723 0.188 1.042 0.037 0.51-0.242 0.709-0.976 0.401-1.476-0.285-0.461-1.012-0.632-1.442-0.339zM76.402 10.347c-0.328 0.2-0.463 0.424-0.463 0.77 0 0.536 0.303 0.864 0.838 0.907 0.256 0.021 0.357-0.002 0.528-0.121 0.298-0.205 0.457-0.52 0.424-0.842-0.066-0.649-0.793-1.040-1.327-0.714zM84.885 10.318c-0.429 0.187-0.638 0.796-0.418 1.219 0.062 0.119 0.211 0.283 0.331 0.364 0.179 0.121 0.277 0.142 0.55 0.12 0.282-0.023 0.367-0.061 0.562-0.256 0.217-0.216 0.23-0.252 0.23-0.629 0-0.34-0.023-0.424-0.156-0.566-0.315-0.337-0.701-0.426-1.098-0.253zM74.372 11.411c-0.377 0.204-0.531 0.687-0.338 1.061 0.31 0.599 1.128 0.599 1.438 0 0.357-0.69-0.413-1.433-1.1-1.061zM78.564 11.399c-0.312 0.159-0.473 0.41-0.467 0.724 0.023 1.049 1.587 1.047 1.585-0.001 0-0.315-0.199-0.631-0.467-0.743-0.279-0.117-0.391-0.113-0.651 0.019zM82.891 11.378c-0.303 0.132-0.463 0.381-0.461 0.715 0.001 0.158 0.038 0.353 0.082 0.432 0.196 0.353 0.721 0.489 1.11 0.288 0.276-0.143 0.454-0.571 0.369-0.888-0.071-0.266-0.258-0.469-0.522-0.569-0.225-0.085-0.341-0.081-0.578 0.022zM86.99 11.396c-0.315 0.155-0.457 0.421-0.425 0.794 0.022 0.257 0.064 0.342 0.252 0.515 0.182 0.166 0.277 0.206 0.492 0.206 0.931-0.001 1.171-1.171 0.314-1.536-0.258-0.11-0.375-0.106-0.634 0.021zM76.527 12.623c-0.389 0.173-0.593 0.611-0.466 0.995 0.111 0.336 0.326 0.494 0.72 0.526 0.333 0.028 0.351 0.021 0.593-0.221 0.212-0.212 0.25-0.29 0.25-0.51 0-0.464-0.251-0.767-0.693-0.841-0.122-0.020-0.293 0.001-0.404 0.050zM84.931 12.643c-0.754 0.371-0.493 1.515 0.345 1.515 0.888-0.001 1.115-1.192 0.294-1.535-0.265-0.111-0.38-0.107-0.639 0.021zM93.689 15.661c-1.373 0.512-2.615 0.975-2.761 1.029-0.25 0.093-0.266 0.112-0.266 0.343 0 0.134 0.017 0.244 0.037 0.244 0.086 0 5.598-1.252 5.648-1.283 0.030-0.019 0.055-0.313 0.055-0.654 0-0.551-0.012-0.619-0.109-0.615-0.060 0.003-1.233 0.424-2.605 0.936zM86.608 17.682v2.713h0.812v-5.426h-0.812v2.713zM75.382 15.32c-0.355 0.451 0.117 1.063 0.62 0.803 0.224-0.116 0.333-0.353 0.278-0.603-0.083-0.379-0.656-0.506-0.898-0.199zM78.996 17.931v2.276h5.553v-4.553h-5.553v2.276zM71.291 15.817c0.296 0.048 0.718 0.054 0.718 0.010 0-0.026-0.19-0.043-0.422-0.039s-0.365 0.018-0.296 0.029zM72.196 16.029c0 0.038 0.313 0.062 0.814 0.062 0.527 0 0.801-0.022 0.776-0.062-0.023-0.036-0.365-0.062-0.815-0.062-0.475 0-0.776 0.024-0.776 0.062zM79.433 16.092c0 0.040 0.478 0.062 1.31 0.062s1.31-0.023 1.31-0.062c0-0.040-0.479-0.062-1.31-0.062s-1.31 0.023-1.31 0.062zM82.365 17.931v1.902h1.747v-3.805h-1.747v1.902zM88.043 17.183v1.091h1.185v-2.183h-1.185v1.091zM89.584 16.13c-0.024 0.024-0.044 0.264-0.044 0.533v0.489l0.717-0-0.004-0.514-0.005-0.514-0.309-0.018c-0.17-0.010-0.33 0.002-0.355 0.026zM80.379 16.797c-0.418 0.445 0.215 1.070 0.647 0.638 0.085-0.084 0.153-0.226 0.153-0.315 0-0.217-0.26-0.468-0.485-0.468-0.107 0-0.234 0.058-0.315 0.144zM75.003 19.21v1.809h2.927l0.018-0.452c0.011-0.249 0.011-1.063 0.001-1.809l-0.018-1.357h-2.928v1.809zM75.377 18.119v0.156h2.183v-0.312h-2.183v0.156zM80.379 18.107c-0.28 0.299-0.067 0.791 0.344 0.791 0.194 0 0.456-0.263 0.456-0.457 0-0.418-0.519-0.634-0.8-0.335zM75.377 18.68v0.156h2.183v-0.312h-2.183v0.156zM75.377 19.241v0.156h2.183v-0.312h-2.183v0.156zM79.433 19.614v0.157h2.629l-0.020-0.14c-0.020-0.14-0.025-0.14-1.315-0.157l-1.295-0.017v0.157zM75.377 19.74v0.156h2.183v-0.312h-2.183v0.156zM75.377 20.302v0.156h2.183v-0.312h-2.183v0.156zM84.125 21.593c-0.135 0.135-0.088 0.412 0.088 0.528 0.146 0.096 0.18 0.097 0.328 0.015 0.2-0.112 0.244-0.337 0.097-0.498-0.121-0.134-0.399-0.158-0.513-0.045zM85.39 21.644c-0.257 0.284 0.184 0.725 0.468 0.468 0.151-0.137 0.164-0.361 0.028-0.496s-0.36-0.123-0.496 0.029zM75.021 21.684c-0.015 0.040-0.018 0.152-0.007 0.25l0.020 0.177h8.143l0.009-0.172c0.005-0.094 0.012-0.203 0.016-0.241 0.009-0.102-8.141-0.116-8.18-0.014zM74.005 22.89c0 0.037 0.213 0.062 0.515 0.062 5.038 0.001 12.549 0.001 12.728 0.001 0.129-0 0.234-0.029 0.234-0.063 0-0.041-2.288-0.062-6.738-0.062s-6.738 0.021-6.738 0.062zM75.154 23.535c-0.018 0.046-0.024 0.278-0.014 0.515l0.019 0.43 10.763 0.032v-1.061h-5.368c-4.447 0-5.373 0.014-5.4 0.084z"></path>
</symbol>
</defs>
</svg>
