<svg aria-hidden="true" style="position: absolute; width: 0; height: 0; overflow: hidden;" version="1.1" xmlns="http://www.w3.org/2000/svg" xmlns:xlink="http://www.w3.org/1999/xlink">
<defs>
<symbol id="icon-Group-9" viewBox="0 0 32 32">
<path fill="#76f3dc" style="fill: var(--color1, #76f3dc)" d="M32 16c0 8.837-7.163 16-16 16s-16-7.163-16-16c0-8.837 7.163-16 16-16s16 7.163 16 16z"></path>
<path fill="#777" style="fill: var(--color2, #777)" d="M30.4 16c0 7.953-6.447 14.4-14.4 14.4s-14.4-6.447-14.4-14.4c0-7.953 6.447-14.4 14.4-14.4s14.4 6.447 14.4 14.4z"></path>
<path fill="#76f3dc" style="fill: var(--color1, #76f3dc)" d="M22.663 14.763c-0.025-0.050-0.1-0.156-0.166-0.234-0.156-0.188-1.406-1.706-3.003-3.656-2.241-2.734-2.272-2.769-2.388-2.825-0.131-0.063-0.269-0.063-0.409-0.006-0.103 0.044-0.303 0.278-2.912 3.428-0.391 0.475-1.141 1.378-1.666 2.009s-0.984 1.206-1.022 1.275c-0.041 0.072-0.072 0.172-0.072 0.222 0 0.162 0.113 0.347 0.259 0.431l0.131 0.075 1.497 0.009 1.497 0.012-0.022 0.472c-0.041 0.941-0.109 1.506-0.272 2.256-0.241 1.116-0.744 2.234-1.331 2.953-0.769 0.944-1.828 1.606-2.884 1.8-0.491 0.091-0.65 0.228-0.616 0.531 0.034 0.309 0.2 0.403 0.803 0.45 1.584 0.119 3.294-0.131 4.625-0.678 2.266-0.934 3.741-2.722 4.372-5.291 0.163-0.663 0.312-1.763 0.316-2.288v-0.213h1.306c1.431-0.003 1.669-0.019 1.812-0.125 0.175-0.128 0.244-0.422 0.144-0.609zM20.038 14.47c-0.6-0.003-1.147 0.009-1.212 0.025-0.15 0.037-0.266 0.119-0.337 0.244-0.044 0.075-0.063 0.222-0.084 0.778-0.047 1.009-0.144 1.681-0.362 2.481-0.656 2.394-2.156 3.956-4.509 4.7-0.384 0.119-1.103 0.278-1.2 0.262-0.047-0.006-0.006-0.053 0.184-0.203 1.563-1.228 2.484-3.128 2.772-5.712 0.069-0.606 0.113-1.322 0.113-1.784 0-0.453-0.044-0.581-0.241-0.703-0.119-0.075-0.125-0.075-1.334-0.091l-1.216-0.016 0.481-0.578c0.262-0.319 0.859-1.034 1.322-1.594s1.175-1.416 1.578-1.903c0.406-0.491 0.775-0.934 0.822-0.984l0.088-0.097 0.053 0.069c0.066 0.078 3.288 3.994 3.825 4.647 0.2 0.244 0.359 0.444 0.356 0.45s-0.5 0.009-1.097 0.009z"></path>
</symbol>
</defs>
</svg>
