<svg aria-hidden="true" style="position: absolute; width: 0; height: 0; overflow: hidden;" version="1.1" xmlns="http://www.w3.org/2000/svg" xmlns:xlink="http://www.w3.org/1999/xlink">
<defs>
<symbol id="icon-actor" viewBox="0 0 32 32">
<path d="M16.567 4.289c0.367-0.058 0.761-0.076 1.234-0.057 1.257 0.052 2.067 0.365 2.766 1.070 0.218 0.22 0.448 0.508 0.511 0.641 0.092 0.195 0.142 0.24 0.267 0.241 0.427 0.002 1.248 0.511 1.326 0.822 0.022 0.089 0.088 0.142 0.207 0.166 0.409 0.082 0.425 0.279 0.063 0.81-0.245 0.36-0.265 0.414-0.272 0.766-0.008 0.374-0.006 0.379 0.179 0.467 0.217 0.103 0.247 0.284 0.091 0.548-0.091 0.154-0.091 0.168 0.013 0.283 0.107 0.119 0.104 0.145-0.263 2.357l-0.372 2.237h0.126c0.158 0 0.441 0.315 0.543 0.605 0.111 0.315 0.089 2.174-0.033 2.738-0.114 0.526-0.347 1.054-0.529 1.197-0.076 0.060-0.225 0.125-0.331 0.145s-0.193 0.043-0.193 0.050-0.053 0.279-0.118 0.604c-0.187 0.929-0.574 1.614-1.439 2.547-0.289 0.311-0.29 0.314-0.363 0.868l-0.073 0.556 0.147 0.115c0.332 0.261 0.46 0.838 0.369 1.666-0.084 0.759-0.19 1.074-0.45 1.326-0.292 0.283-0.778 0.538-1.336 0.699-0.406 0.117-0.568 0.131-1.587 0.129-1.235-0.002-1.743-0.075-2.959-0.428-1.64-0.475-3.516-1.468-4.52-2.391l-0.327-0.301 0.37-1.297c0.203-0.713 0.398-1.331 0.433-1.373s0.174-0.093 0.309-0.113c0.285-0.043 0.254 0.035 0.427-1.064 0.094-0.595 0.112-0.86 0.075-1.106l-0.049-0.323-0.284-0.029c-0.731-0.074-1.050-0.612-1.255-2.112-0.097-0.714-0.065-1.365 0.097-1.943 0.072-0.258 0.437-0.654 0.602-0.654 0.163 0 0.174-0.030 0.123-0.352-0.026-0.161-0.076-0.606-0.112-0.989l-0.065-0.696-0.244-0.254c-0.642-0.67-0.963-1.733-0.824-2.73 0.052-0.377 0.049-0.458-0.024-0.539-0.047-0.052-0.086-0.122-0.086-0.156 0-0.059 0.599-1.004 1.339-2.115 0.505-0.758 1.002-1.263 1.449-1.475 0.199-0.094 0.397-0.171 0.441-0.171s0.306-0.155 0.582-0.344c0.762-0.522 1.063-0.643 1.608-0.646 0.319-0.002 0.509 0.025 0.64 0.093 0.168 0.086 0.206 0.087 0.387 0.012 0.139-0.058 0.301-0.074 0.523-0.051 0.185 0.019 0.552-0.003 0.861-0.052zM18.751 8.783c-0.436 0.151-0.814 0.395-1.18 0.763-0.195 0.195-0.366 0.322-0.412 0.305-0.202-0.078-1.599-0.32-2.139-0.371-0.727-0.069-0.951-0.155-1.3-0.497l-0.266-0.261-0.259 0.072c-0.713 0.2-1.104 0.738-1.313 1.807-0.108 0.555-0.103 1.184 0.015 1.753 0.097 0.466 0.096 0.468-0.028 0.638-0.069 0.094-0.175 0.241-0.237 0.327-0.18 0.251-0.297 1.066-0.323 2.253-0.024 1.099-0.045 1.194-0.251 1.145-0.075-0.018-0.089 0.036-0.085 0.326l0.005 0.347h-0.198c-0.168 0-0.22-0.034-0.34-0.221l-0.142-0.221-0.018 0.188c-0.025 0.258 0.151 0.488 0.357 0.464 0.214-0.024 0.314 0.080 0.314 0.329 0 0.259-0.13 0.398-0.274 0.294-0.052-0.037-0.133-0.084-0.18-0.104-0.716-0.306-0.893-1.186-0.384-1.909 0.063-0.089 0.047-0.125-0.115-0.271-0.103-0.093-0.209-0.155-0.236-0.138s-0.066 0.241-0.087 0.498c-0.067 0.831 0.222 2.284 0.512 2.574 0.177 0.177 0.537 0.193 0.537 0.023 0-0.151 0.206-0.261 0.316-0.169 0.045 0.037 0.082 0.109 0.082 0.16 0.001 0.060 0.026 0.043 0.073-0.049 0.105-0.208 0.295-0.19 0.295 0.028 0 0.148-0.020 0.17-0.156 0.168-0.089-0.001-0.156 0.029-0.156 0.069s0.037 0.057 0.086 0.038c0.117-0.045 0.268 0.091 0.237 0.213-0.018 0.067-0.001 0.089 0.053 0.069 0.094-0.036 0.248 0.078 0.248 0.185 0 0.041-0.061 0.146-0.135 0.232-0.117 0.136-0.148 0.147-0.227 0.081-0.062-0.051-0.092-0.055-0.092-0.012 0 0.095 0.219 0.868 0.256 0.905 0.018 0.018 0.101 0.033 0.186 0.034 0.128 0.002 0.152 0.027 0.146 0.144-0.005 0.078-0.026 0.198-0.048 0.266-0.033 0.102-0.019 0.123 0.076 0.116 0.084-0.006 0.101-0.028 0.059-0.078-0.040-0.048-0.021-0.14 0.062-0.303 0.141-0.276 0.27-0.345 0.375-0.202 0.063 0.086 0.057 0.136-0.039 0.324-0.062 0.122-0.149 0.236-0.192 0.253s-0.065 0.067-0.048 0.111c0.017 0.045 0.003 0.115-0.031 0.157s-0.046 0.092-0.025 0.113 0.084-0.039 0.14-0.133c0.114-0.187 0.224-0.215 0.332-0.085 0.056 0.068 0.052 0.123-0.021 0.278-0.112 0.236-0.112 0.241-0.010 0.281 0.052 0.020 0.072 0.004 0.053-0.043-0.016-0.041 0.007-0.11 0.050-0.154s0.070-0.106 0.059-0.139c-0.031-0.094 0.2-0.575 0.293-0.611 0.142-0.054 0.261 0.115 0.198 0.281-0.090 0.238-0.18 0.389-0.259 0.435-0.041 0.024-0.061 0.081-0.043 0.125 0.025 0.065 0.053 0.068 0.143 0.013 0.093-0.057 0.125-0.050 0.191 0.039 0.068 0.092 0.067 0.13-0.008 0.275-0.048 0.092-0.079 0.175-0.068 0.183s0.127 0.083 0.26 0.166c0.233 0.145 0.241 0.146 0.241 0.033 0-0.146 0.154-0.452 0.228-0.452 0.030 0 0.055-0.052 0.055-0.115 0-0.156 0.157-0.206 0.274-0.087 0.089 0.090 0.087 0.103-0.020 0.192-0.063 0.053-0.107 0.135-0.097 0.184s-0.046 0.182-0.124 0.297c-0.139 0.204-0.139 0.21-0.030 0.269 0.084 0.045 0.118 0.042 0.135-0.013 0.013-0.040 0.046-0.148 0.073-0.24 0.068-0.223 0.213-0.313 0.325-0.201 0.074 0.074 0.075 0.123 0.007 0.379-0.081 0.307-0.067 0.394 0.046 0.288 0.037-0.034 0.057-0.143 0.046-0.243-0.028-0.239 0.117-0.396 0.283-0.307 0.093 0.050 0.109 0.097 0.080 0.241-0.019 0.099-0.070 0.205-0.112 0.236-0.057 0.043-0.062 0.093-0.019 0.199 0.053 0.132 0.062 0.121 0.13-0.165 0.080-0.337 0.163-0.424 0.323-0.339 0.077 0.041 0.098 0.098 0.076 0.209-0.017 0.084-0.046 0.254-0.066 0.379-0.035 0.222-0.034 0.224 0.058 0.099 0.052-0.070 0.112-0.127 0.133-0.127 0.099 0.002 0.201 0.114 0.214 0.235 0.008 0.073 0.017 0.143 0.019 0.156s0.056-0.023 0.118-0.080c0.086-0.077 0.098-0.121 0.051-0.178-0.042-0.050-0.049-0.226-0.022-0.532 0.031-0.353 0.063-0.469 0.142-0.511 0.187-0.1 0.247 0.067 0.208 0.579-0.020 0.254-0.064 0.48-0.099 0.502-0.047 0.029-0.046 0.072 0.002 0.162 0.084 0.156 0.173 0.102 0.173-0.104 0-0.205 0.142-0.333 0.274-0.248 0.067 0.043 0.090 0.125 0.079 0.28-0.015 0.212-0.013 0.215 0.058 0.077 0.092-0.177 0.279-0.184 0.354-0.014 0.046 0.104 0.102 0.128 0.298 0.128 0.199 0 0.242-0.019 0.242-0.107 0-0.059 0.038-0.138 0.084-0.176 0.073-0.061 0.073-0.079-0.001-0.154-0.064-0.064-0.076-0.156-0.048-0.377 0.040-0.322 0.136-0.468 0.274-0.416 0.119 0.045 0.127 0.673 0.011 0.79-0.067 0.067-0.065 0.097 0.014 0.201l0.093 0.123 0.066-0.141c0.038-0.081 0.044-0.154 0.014-0.172-0.058-0.036-0.070-0.422-0.017-0.559 0.053-0.138 0.244-0.107 0.316 0.052 0.048 0.106 0.048 0.197-0.002 0.363-0.067 0.225-0.038 0.428 0.054 0.371 0.028-0.017 0.051-0.195 0.051-0.395 0-0.297 0.019-0.374 0.106-0.42 0.141-0.075 0.273 0.069 0.307 0.337 0.014 0.109 0.022 0.046 0.019-0.14-0.007-0.336-0.008-0.339-0.177-0.34-0.128-0.001-0.17-0.028-0.17-0.109 0-0.163 0.187-0.257 0.275-0.139 0.049 0.066 0.097 0.079 0.163 0.042 0.129-0.072 0.27 0.082 0.28 0.308 0.007 0.165 0.011 0.161 0.043-0.047 0.030-0.197 0.053-0.227 0.18-0.226 0.122 0.001 0.142-0.020 0.121-0.129-0.022-0.116-0.032-0.12-0.093-0.038-0.103 0.141-0.284 0.079-0.305-0.105-0.020-0.174 0.112-0.266 0.235-0.163 0.059 0.049 0.071 0.018 0.062-0.15-0.007-0.116-0.030-0.256-0.052-0.31-0.063-0.155 0.012-0.28 0.156-0.259 0.097 0.014 0.13 0.059 0.138 0.188 0.012 0.21 0.239 0.788 0.243 0.618 0.001-0.066-0.026-0.202-0.061-0.303-0.053-0.153-0.048-0.199 0.029-0.277 0.073-0.073 0.115-0.080 0.196-0.029 0.093 0.058 0.102 0.042 0.098-0.171-0.004-0.204 0.013-0.238 0.125-0.254 0.101-0.014 0.143 0.020 0.191 0.159l0.062 0.178 0.142-0.209c0.131-0.192 0.136-0.226 0.071-0.425-0.039-0.119-0.056-0.256-0.037-0.305 0.041-0.106 0.214-0.118 0.31-0.021 0.053 0.053 0.068 0.047 0.068-0.028 0-0.059-0.045-0.096-0.115-0.096-0.063 0-0.13-0.039-0.148-0.086-0.049-0.128 0.093-0.267 0.235-0.231 0.115 0.029 0.129-0.008 0.245-0.635 0.068-0.366 0.15-0.946 0.184-1.289 0.086-0.887 0.102-0.973 0.201-1.055 0.071-0.059 0.111-0.059 0.202-0.002 0.146 0.091 0.253 0.008 0.287-0.221 0.029-0.196-0.012-0.216-0.113-0.055-0.040 0.064-0.132 0.113-0.211 0.113-0.264 0-0.31-0.172-0.368-1.367-0.061-1.264-0.129-1.825-0.297-2.456-0.113-0.425-0.114-0.461-0.027-0.709 0.143-0.405 0.167-0.684 0.095-1.084-0.161-0.89-0.726-1.751-1.553-2.363-0.381-0.282-0.603-0.312-1.087-0.144zM19.064 13.623c-0.954 0.083-1.305 0.216-1.305 0.495 0 0.087 0.034 0.205 0.076 0.262 0.071 0.097 0.125 0.1 0.865 0.040 0.891-0.071 1.393-0.025 1.847 0.17 0.256 0.11 0.291 0.113 0.371 0.033 0.136-0.136 0.046-0.375-0.25-0.657-0.433-0.414-0.534-0.436-1.605-0.343zM13.403 13.71c-0.211 0.105-0.75 0.671-0.75 0.787 0 0.119 0.177 0.267 0.278 0.233 0.050-0.017 0.244-0.085 0.431-0.152 0.284-0.102 0.457-0.121 1.050-0.116 0.39 0.003 0.808 0.029 0.929 0.058s0.256 0.038 0.3 0.021c0.092-0.035 0.246-0.31 0.246-0.438 0-0.222-0.623-0.384-1.73-0.451-0.461-0.028-0.602-0.017-0.753 0.058zM14.138 14.759c-0.166 0.027-0.444 0.119-0.617 0.204-0.346 0.169-0.479 0.353-0.36 0.496 0.098 0.118 0.207 0.109 0.442-0.036l0.199-0.123 0.11 0.151c0.122 0.167 0.275 0.189 0.628 0.091 0.145-0.040 0.233-0.105 0.268-0.198 0.029-0.076 0.067-0.138 0.084-0.138s0.159 0.065 0.315 0.143c0.323 0.164 0.529 0.121 0.497-0.103-0.048-0.333-0.896-0.597-1.567-0.487zM18.859 14.746c-0.508 0.131-0.918 0.446-0.841 0.646 0.057 0.149 0.201 0.162 0.411 0.038 0.173-0.102 0.207-0.107 0.248-0.034 0.062 0.11 0.346 0.171 0.59 0.125 0.143-0.027 0.203-0.073 0.229-0.176 0.043-0.173 0.176-0.179 0.483-0.023 0.314 0.16 0.476 0.131 0.476-0.087 0-0.148-0.040-0.189-0.323-0.334-0.346-0.177-0.92-0.248-1.272-0.157zM17.305 14.836c-0.051 0.062-0.063 0.287-0.043 0.837 0.024 0.655 0.051 0.818 0.205 1.259 0.232 0.662 0.227 0.78-0.050 1.204-0.236 0.362-0.247 0.498-0.046 0.562 0.078 0.025 0.161-0.009 0.264-0.105 0.115-0.108 0.193-0.135 0.33-0.113 0.143 0.022 0.193 0.003 0.246-0.096 0.055-0.102 0.048-0.144-0.038-0.239-0.079-0.087-0.099-0.185-0.085-0.407 0.014-0.215-0.029-0.435-0.162-0.831-0.151-0.452-0.186-0.66-0.218-1.293-0.029-0.575-0.058-0.767-0.122-0.808-0.12-0.076-0.202-0.067-0.283 0.030zM22.267 15.153c-0.021 0.033-0.024 0.074-0.007 0.091 0.041 0.041 0.151-0.031 0.151-0.098 0-0.072-0.098-0.068-0.144 0.007zM9.954 15.266c-0.091 0.1-0.091 0.11-0.005 0.11 0.052 0 0.222 0.123 0.378 0.274 0.287 0.277 0.304 0.262 0.143-0.132-0.123-0.301-0.365-0.419-0.516-0.252zM22.424 15.732l-0.118 0.126 0.332 0.331v-0.261c0-0.313-0.057-0.365-0.215-0.195zM22.531 17.405c-0.004 0.040-0.093 0.113-0.199 0.164-0.207 0.099-0.199 0.072-0.295 0.971-0.033 0.308-0.026 0.351 0.050 0.322 0.184-0.071 0.547-1.169 0.475-1.438-0.013-0.050-0.027-0.058-0.031-0.019zM15.976 18.188c-0.226 0.226-0.064 0.352 0.462 0.359 0.343 0.005 0.419-0.011 0.465-0.099 0.040-0.075 0.032-0.139-0.030-0.227-0.072-0.103-0.141-0.122-0.447-0.122-0.253 0-0.388 0.027-0.451 0.089zM17.559 19.010c-0.028 0.087-0.055 0.101-0.11 0.056-0.125-0.104-0.258-0.006-0.257 0.188 0.001 0.23 0.071 0.336 0.205 0.311 0.069-0.013 0.115-0.080 0.129-0.19 0.021-0.162 0.024-0.163 0.058-0.033 0.054 0.207 0.219 0.287 0.317 0.154 0.073-0.098 0.086-0.099 0.171-0.014 0.070 0.070 0.118 0.078 0.201 0.033 0.127-0.068 0.128-0.073 0.051-0.347-0.071-0.256-0.217-0.326-0.346-0.167-0.092 0.114-0.094 0.114-0.123 0.003-0.039-0.149-0.248-0.146-0.296 0.004zM16.461 19.027c-0.12 0.144-0.138 0.406-0.034 0.492 0.085 0.070 0.109 0.064 0.204-0.052 0.122-0.151 0.139-0.348 0.039-0.449-0.087-0.087-0.13-0.086-0.208 0.008zM11.615 19.043c-0.068 0.068-0.044 0.231 0.045 0.305 0.114 0.094 0.268-0.028 0.244-0.194-0.017-0.117-0.209-0.192-0.289-0.111zM15.961 19.116c-0.037 0.14-0.056 0.144-0.165 0.035-0.107-0.107-0.216-0.062-0.308 0.128-0.060 0.124-0.078 0.134-0.097 0.054-0.022-0.096-0.297-0.149-0.299-0.057-0.001 0.023-0.023 0.077-0.049 0.119-0.040 0.064-0.069 0.064-0.173 0-0.111-0.068-0.137-0.062-0.235 0.058-0.060 0.074-0.11 0.17-0.11 0.215 0 0.119 0.168 0.162 0.303 0.078 0.085-0.053 0.124-0.056 0.139-0.009 0.035 0.106 0.226 0.073 0.315-0.053 0.052-0.074 0.097-0.095 0.12-0.057 0.064 0.103 0.246 0.068 0.346-0.067 0.063-0.085 0.103-0.104 0.121-0.057 0.085 0.223 0.442-0.074 0.405-0.337-0.025-0.178-0.269-0.218-0.313-0.050zM18.449 19.081c-0.050 0.060-0.047 0.132 0.011 0.3 0.060 0.173 0.106 0.221 0.21 0.221 0.094 0 0.145-0.042 0.173-0.142 0.035-0.126 0.040-0.128 0.045-0.020 0.003 0.067 0.055 0.182 0.115 0.255 0.102 0.125 0.116 0.128 0.206 0.040 0.077-0.075 0.086-0.136 0.045-0.306-0.064-0.272-0.208-0.373-0.341-0.239-0.090 0.090-0.1 0.089-0.159-0.029-0.075-0.151-0.216-0.188-0.306-0.080zM16.884 19.139c-0.134 0.098-0.102 0.399 0.045 0.427 0.122 0.023 0.203-0.078 0.205-0.253s-0.126-0.264-0.25-0.173zM17.934 19.267c0.003 0.066 0.016 0.080 0.034 0.034 0.016-0.041 0.014-0.090-0.004-0.109s-0.032 0.015-0.030 0.074zM19.416 19.359c-0.143 0.143-0.003 0.514 0.183 0.488 0.151-0.022 0.184-0.234 0.064-0.417-0.102-0.156-0.149-0.169-0.247-0.070zM11.974 19.43c-0.038 0.045-0.051 0.111-0.029 0.146s-0.009 0.098-0.068 0.139c-0.172 0.121-0.394 0.642-0.321 0.756 0.108 0.171 0.215 0.102 0.407-0.262 0.143-0.27 0.174-0.376 0.126-0.433s-0.036-0.082 0.052-0.105c0.137-0.036 0.155-0.24 0.025-0.29-0.118-0.045-0.113-0.047-0.192 0.048zM14.205 19.83c-0.020 0.051-0.009 0.119 0.023 0.151 0.092 0.092 0.269 0.030 0.269-0.095 0-0.144-0.24-0.191-0.291-0.056zM18.411 19.891c-0.907 0.206-2.752 0.235-3.282 0.052-0.219-0.076-0.244-0.074-0.348 0.031-0.088 0.088-0.099 0.134-0.052 0.211 0.104 0.168 0.345 0.246 0.947 0.31 0.929 0.099 2.925-0.079 3.331-0.297 0.085-0.046 0.115-0.108 0.102-0.216-0.021-0.186-0.186-0.207-0.698-0.091zM12.549 20.215c-0.033 0.040-0.086 0.141-0.118 0.225-0.076 0.199 0.057 0.358 0.223 0.269 0.111-0.060 0.208-0.401 0.143-0.506-0.051-0.082-0.174-0.076-0.247 0.012zM11.939 20.422c-0.125 0.189-0.14 0.245-0.081 0.316 0.115 0.139 0.251 0.099 0.362-0.107 0.218-0.406-0.028-0.59-0.28-0.209zM12.722 20.751c-0.101 0.035-0.24 0.321-0.24 0.494 0 0.080 0.011 0.145 0.024 0.145s0.063 0.015 0.111 0.034c0.059 0.022 0.126-0.029 0.203-0.156 0.188-0.309 0.134-0.597-0.098-0.516zM13.165 20.792c-0.109 0.131-0.048 0.286 0.112 0.286 0.105 0 0.146-0.034 0.16-0.135 0.028-0.201-0.149-0.299-0.272-0.151zM20.546 20.81c-0.070 0.13 0.020 0.296 0.16 0.296 0.133 0 0.191-0.146 0.114-0.288-0.073-0.137-0.204-0.141-0.275-0.009zM11.075 21.877c-0.069 0.424-0.113 0.792-0.097 0.818 0.048 0.078 0.824 0.642 1.24 0.901 1.196 0.746 2.878 1.411 3.951 1.562 0.697 0.098 1.485 0.486 1.865 0.918 0.245 0.278 0.461 0.769 0.461 1.046 0 0.124 0.027 0.168 0.103 0.168 0.199 0 0.284-0.143 0.402-0.681 0.093-0.424 0.346-1.892 0.346-2.008 0-0.035-0.128-0.049-2.695-0.296-0.913-0.088-1.002-0.107-1.674-0.368-0.757-0.294-1.354-0.616-2.355-1.268-0.688-0.449-1.019-0.782-1.241-1.252-0.081-0.171-0.155-0.311-0.164-0.311s-0.074 0.347-0.143 0.771zM16.892 21.26c-0.061 0.061-0.097 0.071-0.097 0.028 0-0.038-0.063-0.069-0.141-0.069-0.103 0-0.15 0.038-0.176 0.142-0.020 0.078-0.021 0.18-0.003 0.227 0.043 0.111 0.257 0.11 0.3-0.002 0.029-0.076 0.041-0.076 0.101 0.006 0.094 0.128 0.276 0.080 0.315-0.084l0.032-0.136 0.068 0.15c0.079 0.173 0.14 0.187 0.265 0.061 0.095-0.095 0.11-0.187 0.055-0.332-0.041-0.107-0.282-0.12-0.33-0.019-0.026 0.057-0.040 0.057-0.066 0-0.047-0.101-0.21-0.088-0.324 0.026zM13.314 21.413c-0.139 0.212-0.169 0.402-0.077 0.479 0.045 0.037 0.12 0.053 0.167 0.035 0.112-0.043 0.293-0.45 0.25-0.562-0.051-0.133-0.24-0.106-0.34 0.048zM16.913 21.809c-0.038 0.046-0.061 0.181-0.052 0.3 0.016 0.189 0.036 0.217 0.16 0.217 0.132 0 0.142-0.019 0.142-0.283 0-0.301-0.109-0.404-0.25-0.234zM13.522 21.915c-0.223 0.305-0.237 0.57-0.033 0.6 0.1 0.014 0.151-0.034 0.249-0.235 0.068-0.139 0.107-0.294 0.088-0.344-0.042-0.108-0.23-0.121-0.303-0.020zM16.43 22.063c-0.017 0.027-0.056 0.275-0.087 0.552-0.048 0.425-0.044 0.517 0.028 0.588 0.064 0.064 0.109 0.070 0.183 0.024 0.073-0.046 0.111-0.185 0.147-0.551 0.027-0.269 0.034-0.528 0.016-0.576-0.036-0.093-0.237-0.119-0.287-0.038zM17.316 22.142c-0.071 0.086-0.11 0.836-0.048 0.936s0.245 0.088 0.286-0.019c0.019-0.049 0.034-0.276 0.034-0.505 0-0.326-0.019-0.422-0.090-0.449-0.117-0.045-0.114-0.046-0.183 0.037zM12.798 22.178c-0.094 0.037-0.096 0.048-0.019 0.078 0.052 0.020 0.104 0 0.122-0.047 0.017-0.045 0.026-0.080 0.019-0.078s-0.062 0.023-0.122 0.047zM16.827 22.596c-0.086 0.426-0.086 0.769 0 0.841 0.163 0.136 0.275-0.007 0.317-0.407 0.048-0.457 0.020-0.561-0.155-0.561-0.097 0-0.145 0.038-0.163 0.128zM10.055 23.561c-0.134 0.476-0.257 0.919-0.274 0.985-0.026 0.101 0.068 0.195 0.574 0.575 1.783 1.339 4.214 2.234 6.308 2.322l0.804 0.034 0.040-0.21c0.138-0.736-0.41-1.469-1.209-1.618-1.259-0.234-1.988-0.477-3.163-1.051-0.978-0.478-1.876-1.056-2.42-1.556-0.208-0.191-0.386-0.347-0.397-0.346s-0.129 0.39-0.263 0.865zM15.528 22.761c-0.132 0.074-0.135 0.532-0.004 0.582 0.15 0.058 0.248-0.076 0.248-0.336 0-0.258-0.080-0.338-0.245-0.246zM17.215 23.339c-0.018 0.046-0.024 0.157-0.014 0.245 0.015 0.129 0.047 0.161 0.16 0.161 0.128 0 0.142-0.023 0.142-0.227 0-0.192-0.020-0.23-0.128-0.245-0.074-0.011-0.142 0.017-0.16 0.066zM19.94 25.424c-0.039 0.064-0.309 1.211-0.309 1.314 0 0.031 0.050-0.006 0.11-0.083 0.101-0.129 0.197-0.551 0.245-1.081 0.021-0.227 0.014-0.248-0.047-0.15z"></path>
</symbol>
</defs>
</svg>
