<svg width="1419" height="453" viewBox="0 0 1419 453" fill="none" xmlns="http://www.w3.org/2000/svg">
<path fill-rule="evenodd" clip-rule="evenodd" d="M234.174 122.518C228.111 123.527 221.766 126.971 216.772 131.966C205.035 143.705 203.322 158.473 211.898 174.003C213.425 176.769 220.382 182.811 224.341 184.81C230.626 187.984 239.103 189.933 252.39 191.261C266.938 192.715 271.935 195.339 276.991 204.18C280.039 209.51 281.014 214.148 281.014 223.326C281.014 232.433 279.998 237.409 277.069 242.645C274.489 247.256 271.944 249.945 268.262 251.949C264.493 254.001 261.468 254.694 252.39 255.584C240.424 256.756 230.46 259.002 224.696 261.825C214.696 266.722 207.617 277.475 206.634 289.26C205.383 304.261 216.59 319.658 231.807 323.84C236.483 325.126 246.407 324.985 251.104 323.566C265.45 319.232 272.936 308.42 277.44 285.526C279.991 272.559 282.109 268.204 287.693 264.444C291.256 262.045 295.198 260.99 305.135 259.779C315.402 258.527 325.574 256.567 330.37 254.916C339.645 251.726 347.635 243.634 350.464 234.569C354 223.243 352.04 211.169 345.284 202.651C340.856 197.067 336.374 194.056 328.935 191.664C322.634 189.638 319.334 188.99 307.386 187.43C292.101 185.435 289.198 184.476 284.656 179.922C281.085 176.342 279.396 171.963 277.496 161.363C276.253 154.425 273.302 144.897 270.724 139.494C264.786 127.051 249.528 119.963 234.174 122.518ZM159.515 191.008C144.821 194.96 134.357 208.586 134.357 223.766C134.357 242.46 149.436 257.541 168.127 257.541C186.728 257.541 201.896 242.37 201.896 223.766C201.896 208.313 191.449 194.917 176.345 191.002C171.553 189.76 164.144 189.763 159.515 191.008ZM79.1188 258.556C57.9693 264.245 47.7709 287.847 58.013 307.399C62.2468 315.482 71.7293 322.596 80.7738 324.474C85.7621 325.51 93.8983 324.946 98.9085 323.218C122.252 315.165 129.151 284.893 111.604 267.514C107.185 263.137 100.506 259.356 95.2491 258.255C90.6352 257.289 83.3223 257.425 79.1188 258.556ZM384.518 258.471C376.203 260.764 367.139 268.042 363.42 275.411C352.108 297.822 366.589 323.494 391.354 324.937C401.239 325.512 410.175 322.117 417.072 315.165C435.565 296.523 426.985 265.141 401.587 258.524C397.106 257.357 388.649 257.331 384.518 258.471Z" fill="black"/>
<path fill-rule="evenodd" clip-rule="evenodd" d="M648.918 91.5192C635.525 94.9428 628.773 102.711 625.111 118.914C623.005 128.228 623.212 148.433 625.547 161.507C626.532 167.021 627.338 172.015 627.338 172.605C627.338 173.201 623.471 175.055 618.632 176.779C607.967 180.577 591.916 188.581 585.573 193.266C578.145 198.752 571.642 205.941 568.692 211.932C566.363 216.661 565.985 218.325 566 223.795C566.016 229.113 566.43 230.991 568.522 235.234C573.324 244.976 586.074 255.768 601.935 263.516C608.701 266.821 609.88 267.301 620.846 271.213C624.49 272.513 627.611 273.716 627.782 273.886C627.952 274.056 627.737 275.708 627.303 277.555C624.018 291.58 623.036 315.232 625.253 326.916C627.617 339.373 633.863 349.604 641.521 353.562C645.272 355.502 653.333 356.505 659.074 355.746C673.356 353.859 686.894 346.823 705.948 331.386C711.943 326.531 715.103 324.48 715.798 324.994C716.362 325.411 719.443 327.971 722.646 330.685C730.861 337.645 743.407 345.857 751.789 349.762C761.661 354.362 769.073 356.077 777.042 355.605C791.101 354.773 798.66 347.662 803.551 330.666C806.219 321.395 806.187 299.195 803.486 284.354C802.475 278.801 801.939 274.007 802.294 273.701C802.651 273.396 805.988 272.102 809.712 270.827C826.82 264.967 842.629 255.826 852.094 246.324C860.15 238.237 862.96 232.431 862.999 223.8C863.023 218.327 862.652 216.679 860.321 211.943C853.674 198.431 837.137 186.703 810.981 176.95C805.629 174.955 801.307 172.976 801.377 172.554C801.446 172.132 802.2 167.98 803.052 163.327C804.229 156.898 804.599 150.704 804.594 137.525C804.587 120.894 804.492 119.9 802.278 113.304C798.577 102.277 792.775 95.5875 784.346 92.6258C774.7 89.2368 763.673 91.098 748.591 98.6617C741.314 102.311 726.887 111.975 722.072 116.425C721.346 117.096 719.381 118.923 717.706 120.486L714.66 123.326L708.13 117.757C695.121 106.66 679.505 97.2532 667.922 93.5343C662.488 91.79 652.149 90.6936 648.918 91.5192ZM650.139 105.335C641.182 108.052 637.333 117.908 637.41 137.933C637.445 147.292 639.96 168.19 641.2 169.429C641.364 169.593 645.262 168.906 649.863 167.903C654.463 166.899 662.974 165.451 668.775 164.685L679.324 163.291L685.368 155.499C691.172 148.016 695.094 143.421 701.701 136.366L704.766 133.092L700.961 129.776C687.434 117.988 673.113 109.34 662.053 106.283C655.333 104.425 653.594 104.286 650.139 105.335ZM763.992 106.877C752.987 110.617 740.807 118.267 728.921 128.902L724.294 133.042L730.265 139.725C733.55 143.4 739.31 150.231 743.065 154.902L749.893 163.396L758.646 164.471C763.459 165.061 771.934 166.476 777.477 167.613C783.021 168.751 787.671 169.568 787.809 169.43C788.802 168.438 790.901 151.944 791.278 142.165C791.818 128.197 790.754 120.462 787.281 113.122C783.121 104.328 776.62 102.585 763.992 106.877ZM709.747 147.888C705.821 151.964 700.206 158.743 699.061 160.789C698.753 161.34 704.141 161.635 714.503 161.635C728.398 161.635 730.328 161.474 729.715 160.366C728.57 158.298 715.357 143.447 714.663 143.447C714.311 143.447 712.099 145.446 709.747 147.888ZM689.943 176.198C687.269 176.485 686.524 177.196 682.759 183.035C670.735 201.688 659.951 222.179 660.683 224.982C661.582 228.423 674.886 252.228 681.115 261.54L687.395 270.928L696.427 271.481C707.941 272.184 721.087 272.184 732.633 271.477L741.713 270.922L745.763 264.921C752.273 255.272 756.466 248.159 762.879 235.88C768.752 224.632 768.871 224.282 767.806 221.339C765.6 215.242 750.463 188.679 744.581 180.584C742.091 177.157 741.275 176.626 737.743 176.142C733.628 175.579 695.293 175.623 689.943 176.198ZM654.652 181.005C649.893 182.037 645.716 183.166 645.369 183.512C644.739 184.142 648.146 195.314 651.277 202.883L652.942 206.91L658.605 196.539C661.719 190.835 665.294 184.55 666.547 182.573L668.827 178.977L666.066 179.053C664.547 179.093 659.411 179.972 654.652 181.005ZM763.179 183.842C764.79 186.516 768.294 192.598 770.965 197.355C773.635 202.112 776.125 205.699 776.496 205.328C777.559 204.266 783.987 184.653 783.602 183.649C783.266 182.777 765.755 178.977 762.072 178.977C760.334 178.977 760.385 179.203 763.179 183.842ZM621.414 190.293C598.791 199.032 582.789 210.612 579.868 220.356C578.298 225.596 580.531 230.522 587.57 237.349C593.565 243.162 600.81 247.814 611.259 252.56C617.499 255.394 629.786 260.18 630.835 260.186C631.129 260.188 632.94 255.472 634.858 249.706C636.776 243.94 639.828 235.662 641.641 231.308C644.686 223.996 644.846 223.219 643.748 221.097C642.268 218.236 633.938 195.897 632.537 191.032C631.278 186.662 630.882 186.636 621.414 190.293ZM796.761 189.763C796.275 191.042 795.028 194.754 793.991 198.011C792.954 201.268 790.449 208.063 788.425 213.111C786.402 218.158 784.747 222.781 784.747 223.383C784.747 223.987 786.311 228.422 788.223 233.241C790.136 238.059 793.033 245.998 794.663 250.884C796.293 255.769 797.742 259.892 797.883 260.044C798.153 260.338 807.39 257.078 813.097 254.675C831.797 246.801 844.455 237.439 848.223 228.694C849.919 224.759 850.03 223.809 849.172 220.596C848.04 216.355 847.519 215.605 841.871 210.083C836.62 204.949 828.714 199.713 819.867 195.507C812.428 191.971 800.586 187.437 798.789 187.437C798.16 187.437 797.248 188.484 796.761 189.763ZM703.996 197.994C681.961 207.05 680.894 237.656 702.234 248.545C717.401 256.285 736.822 247.528 741.126 231.01C742.851 224.39 742.776 221.719 740.676 214.923C739.239 210.273 738.045 208.352 734.117 204.365C725.83 195.954 714.693 193.599 703.996 197.994ZM651.22 244.748C649.088 249.739 644.777 263.523 645.212 263.953C645.874 264.608 668.105 268.785 668.551 268.339C668.808 268.083 667.661 265.83 666.002 263.333C664.344 260.836 660.726 254.728 657.963 249.76L652.937 240.727L651.22 244.748ZM773.742 244.778C772.595 246.973 769.425 252.57 766.7 257.215C759.227 269.953 759.571 268.833 763.322 268.216C776.087 266.12 783.899 264.06 783.871 262.798C783.832 260.983 777.431 242.387 776.54 241.496C776.149 241.105 774.89 242.582 773.742 244.778ZM782.631 278.515C776.286 279.856 759.523 282.723 753.741 283.457C749.781 283.96 749.143 284.359 746.559 287.961C745 290.135 739.448 296.942 734.221 303.089L724.718 314.265L731.229 319.941C750.192 336.472 772.206 345.712 781.36 340.98C788.182 337.453 791.717 326.748 791.695 309.678C791.682 299.758 790.076 285.257 788.363 279.602L787.709 277.441L782.631 278.515ZM639.639 285.357C637.494 296.505 636.998 316.618 638.674 324.483C641.4 337.276 645.811 342.248 654.434 342.248C665.379 342.248 679.1 335.434 696.522 321.344C700.827 317.862 704.349 314.764 704.348 314.46C704.347 314.157 702.448 311.814 700.128 309.255C697.807 306.696 692.264 300.006 687.81 294.388L679.712 284.173L669.816 282.698C664.373 281.887 656.179 280.487 651.606 279.589C647.035 278.69 642.791 277.955 642.178 277.955C641.449 277.955 640.57 280.517 639.639 285.357ZM701.483 289.587C703.278 291.797 705.958 294.937 707.44 296.566C708.923 298.194 710.957 300.574 711.959 301.853C712.962 303.132 714.08 304.179 714.444 304.179C715.002 304.179 725.903 291.896 729.648 287.049C730.728 285.65 729.888 285.568 714.507 285.568H698.222L701.483 289.587Z" fill="black"/>
<path fill-rule="evenodd" clip-rule="evenodd" d="M0.283462 1.06998C0.021462 1.75898 -0.0765398 103.572 0.0644602 227.322L0.320461 452.322H240.82H481.32V226.322V0.321981L241.039 0.0699816C49.3405 -0.131018 0.663462 0.0709816 0.283462 1.06998ZM48.5975 17.379C50.6865 18.842 50.8205 19.665 50.8205 31.05C50.8205 47.248 51.2435 46.822 35.1655 46.822C18.7245 46.822 18.8145 46.906 18.8355 31.572C18.8515 19.79 19.0755 18.857 22.3205 17.017C25.5255 15.199 45.8865 15.48 48.5975 17.379ZM118.403 18.263C119.428 19.667 119.82 23.334 119.82 31.513C119.82 46.892 119.894 46.822 103.649 46.822C87.3935 46.822 87.8205 47.243 87.8205 31.224C87.8205 15.297 87.4895 15.596 104.653 16.019C115.503 16.286 117.156 16.555 118.403 18.263ZM185.597 17.379C187.699 18.851 187.82 19.638 187.82 31.844C187.82 43.582 187.645 44.845 185.886 45.787C184.822 46.356 178.67 46.822 172.214 46.822C156.456 46.822 156.82 47.191 156.82 31.224C156.82 15.628 156.624 15.822 172.32 15.822C180.707 15.822 183.911 16.198 185.597 17.379ZM253.136 16.972C256.571 18.78 256.788 19.645 256.805 31.572C256.825 46.86 256.865 46.822 240.82 46.822C224.775 46.822 224.815 46.86 224.835 31.572C224.851 19.79 225.075 18.857 228.32 17.017C230.967 15.516 250.303 15.481 253.136 16.972ZM322.597 17.379C324.691 18.845 324.82 19.656 324.82 31.307C324.82 41.221 324.508 43.991 323.249 45.251C321.995 46.504 319.253 46.822 309.683 46.822C303.086 46.822 296.818 46.356 295.754 45.787C293.995 44.845 293.82 43.582 293.82 31.844C293.82 15.535 293.542 15.822 309.32 15.822C317.707 15.822 320.911 16.198 322.597 17.379ZM391.597 17.379C393.691 18.845 393.82 19.656 393.82 31.322C393.82 47.121 394.132 46.822 377.597 46.822C361.804 46.822 361.82 46.838 361.82 31.513C361.82 20.129 362.464 17.716 365.82 16.516C366.645 16.221 372.282 15.944 378.347 15.901C386.807 15.84 389.892 16.184 391.597 17.379ZM459.136 16.972C462.571 18.78 462.788 19.645 462.805 31.572C462.826 46.883 462.89 46.822 446.649 46.822C430.393 46.822 430.82 47.243 430.82 31.224C430.82 15.655 430.655 15.822 446.108 15.822C452.345 15.822 457.879 16.31 459.136 16.972ZM446.535 64.442C452.579 66.489 457.925 70.302 460.958 74.729L463.32 78.175V226.413V374.65L460.281 378.973C458.249 381.864 455.291 384.295 451.352 386.309L445.461 389.322H240.82H36.1795L30.2885 386.309C26.3495 384.295 23.3915 381.864 21.3595 378.973L18.3205 374.65V226.413V78.175L20.6825 74.729C23.6505 70.397 29.0035 66.52 34.8205 64.489C38.8515 63.081 60.2765 62.913 240.535 62.87C423.483 62.826 442.184 62.969 446.535 64.442ZM48.5975 407.379C50.6865 408.842 50.8205 409.665 50.8205 421.05C50.8205 437.248 51.2435 436.822 35.1655 436.822C18.7245 436.822 18.8145 436.906 18.8355 421.572C18.8515 409.79 19.0755 408.857 22.3205 407.017C25.5255 405.199 45.8865 405.48 48.5975 407.379ZM118.403 408.263C119.428 409.667 119.82 413.334 119.82 421.513C119.82 436.838 119.836 436.822 104.043 436.822C87.5085 436.822 87.8205 437.121 87.8205 421.322C87.8205 405.282 87.4755 405.596 104.653 406.019C115.503 406.286 117.156 406.555 118.403 408.263ZM185.597 407.379C187.699 408.851 187.82 409.638 187.82 421.844C187.82 433.582 187.645 434.845 185.886 435.787C184.822 436.356 178.67 436.822 172.214 436.822C156.456 436.822 156.82 437.191 156.82 421.224C156.82 405.628 156.624 405.822 172.32 405.822C180.707 405.822 183.911 406.198 185.597 407.379ZM253.136 406.972C256.571 408.78 256.788 409.645 256.805 421.572C256.825 436.86 256.865 436.822 240.82 436.822C224.771 436.822 224.82 436.869 224.82 421.513C224.82 410.129 225.464 407.716 228.82 406.516C231.763 405.464 250.955 405.824 253.136 406.972ZM322.597 407.379C324.686 408.842 324.82 409.665 324.82 421.05C324.82 437.194 325.179 436.822 309.599 436.822C303.048 436.822 296.818 436.356 295.754 435.787C293.995 434.845 293.82 433.582 293.82 421.844C293.82 405.535 293.542 405.822 309.32 405.822C317.707 405.822 320.911 406.198 322.597 407.379ZM391.597 407.379C393.691 408.845 393.82 409.656 393.82 421.322C393.82 437.121 394.132 436.822 377.597 436.822C361.804 436.822 361.82 436.838 361.82 421.513C361.82 410.129 362.464 407.716 365.82 406.516C366.645 406.221 372.282 405.944 378.347 405.901C386.807 405.84 389.892 406.184 391.597 407.379ZM459.136 406.972C462.571 408.78 462.788 409.645 462.805 421.572C462.826 436.883 462.89 436.822 446.649 436.822C430.393 436.822 430.82 437.243 430.82 421.224C430.82 405.655 430.655 405.822 446.108 405.822C452.345 405.822 457.879 406.31 459.136 406.972Z" fill="black"/>
<path fill-rule="evenodd" clip-rule="evenodd" d="M937.283 1.06998C937.021 1.75898 936.923 103.572 937.064 227.322L937.32 452.322H1177.82H1418.32V226.322V0.321981L1178.04 0.0699816C986.34 -0.131018 937.663 0.0709816 937.283 1.06998ZM985.597 17.379C987.686 18.842 987.82 19.665 987.82 31.05C987.82 47.248 988.243 46.822 972.165 46.822C955.724 46.822 955.814 46.906 955.835 31.572C955.851 19.79 956.075 18.857 959.32 17.017C962.525 15.199 982.886 15.48 985.597 17.379ZM1055.4 18.263C1056.43 19.667 1056.82 23.334 1056.82 31.513C1056.82 46.892 1056.89 46.822 1040.65 46.822C1024.39 46.822 1024.82 47.243 1024.82 31.224C1024.82 15.297 1024.49 15.596 1041.65 16.019C1052.5 16.286 1054.16 16.555 1055.4 18.263ZM1122.6 17.379C1124.7 18.851 1124.82 19.638 1124.82 31.844C1124.82 43.582 1124.65 44.845 1122.89 45.787C1121.82 46.356 1115.67 46.822 1109.21 46.822C1093.46 46.822 1093.82 47.191 1093.82 31.224C1093.82 15.628 1093.62 15.822 1109.32 15.822C1117.71 15.822 1120.91 16.198 1122.6 17.379ZM1190.14 16.972C1193.57 18.78 1193.79 19.645 1193.81 31.572C1193.83 46.86 1193.87 46.822 1177.82 46.822C1161.78 46.822 1161.82 46.86 1161.84 31.572C1161.85 19.79 1162.08 18.857 1165.32 17.017C1167.97 15.516 1187.3 15.481 1190.14 16.972ZM1259.6 17.379C1261.69 18.845 1261.82 19.656 1261.82 31.307C1261.82 41.221 1261.51 43.991 1260.25 45.251C1259 46.504 1256.25 46.822 1246.68 46.822C1240.09 46.822 1233.82 46.356 1232.75 45.787C1231 44.845 1230.82 43.582 1230.82 31.844C1230.82 15.535 1230.54 15.822 1246.32 15.822C1254.71 15.822 1257.91 16.198 1259.6 17.379ZM1328.6 17.379C1330.69 18.845 1330.82 19.656 1330.82 31.322C1330.82 47.121 1331.13 46.822 1314.6 46.822C1298.8 46.822 1298.82 46.838 1298.82 31.513C1298.82 20.129 1299.46 17.716 1302.82 16.516C1303.65 16.221 1309.28 15.944 1315.35 15.901C1323.81 15.84 1326.89 16.184 1328.6 17.379ZM1396.14 16.972C1399.57 18.78 1399.79 19.645 1399.81 31.572C1399.83 46.883 1399.89 46.822 1383.65 46.822C1367.39 46.822 1367.82 47.243 1367.82 31.224C1367.82 15.655 1367.66 15.822 1383.11 15.822C1389.35 15.822 1394.88 16.31 1396.14 16.972ZM1383.54 64.442C1389.58 66.489 1394.93 70.302 1397.96 74.729L1400.32 78.175V226.413V374.65L1397.28 378.973C1395.25 381.864 1392.29 384.295 1388.35 386.309L1382.46 389.322H1177.82H973.179L967.288 386.309C963.349 384.295 960.391 381.864 958.359 378.973L955.32 374.65V226.413V78.175L957.682 74.729C960.65 70.397 966.003 66.52 971.82 64.489C975.851 63.081 997.276 62.913 1177.54 62.87C1360.48 62.826 1379.18 62.969 1383.54 64.442ZM985.597 407.379C987.686 408.842 987.82 409.665 987.82 421.05C987.82 437.248 988.243 436.822 972.165 436.822C955.724 436.822 955.814 436.906 955.835 421.572C955.851 409.79 956.075 408.857 959.32 407.017C962.525 405.199 982.886 405.48 985.597 407.379ZM1055.4 408.263C1056.43 409.667 1056.82 413.334 1056.82 421.513C1056.82 436.838 1056.84 436.822 1041.04 436.822C1024.51 436.822 1024.82 437.121 1024.82 421.322C1024.82 405.282 1024.48 405.596 1041.65 406.019C1052.5 406.286 1054.16 406.555 1055.4 408.263ZM1122.6 407.379C1124.7 408.851 1124.82 409.638 1124.82 421.844C1124.82 433.582 1124.65 434.845 1122.89 435.787C1121.82 436.356 1115.67 436.822 1109.21 436.822C1093.46 436.822 1093.82 437.191 1093.82 421.224C1093.82 405.628 1093.62 405.822 1109.32 405.822C1117.71 405.822 1120.91 406.198 1122.6 407.379ZM1190.14 406.972C1193.57 408.78 1193.79 409.645 1193.81 421.572C1193.83 436.86 1193.87 436.822 1177.82 436.822C1161.77 436.822 1161.82 436.869 1161.82 421.513C1161.82 410.129 1162.46 407.716 1165.82 406.516C1168.76 405.464 1187.96 405.824 1190.14 406.972ZM1259.6 407.379C1261.69 408.842 1261.82 409.665 1261.82 421.05C1261.82 437.194 1262.18 436.822 1246.6 436.822C1240.05 436.822 1233.82 436.356 1232.75 435.787C1231 434.845 1230.82 433.582 1230.82 421.844C1230.82 405.535 1230.54 405.822 1246.32 405.822C1254.71 405.822 1257.91 406.198 1259.6 407.379ZM1328.6 407.379C1330.69 408.845 1330.82 409.656 1330.82 421.322C1330.82 437.121 1331.13 436.822 1314.6 436.822C1298.8 436.822 1298.82 436.838 1298.82 421.513C1298.82 410.129 1299.46 407.716 1302.82 406.516C1303.65 406.221 1309.28 405.944 1315.35 405.901C1323.81 405.84 1326.89 406.184 1328.6 407.379ZM1396.14 406.972C1399.57 408.78 1399.79 409.645 1399.81 421.572C1399.83 436.883 1399.89 436.822 1383.65 436.822C1367.39 436.822 1367.82 437.243 1367.82 421.224C1367.82 405.655 1367.66 405.822 1383.11 405.822C1389.35 405.822 1394.88 406.31 1396.14 406.972Z" fill="black"/>
<path fill-rule="evenodd" clip-rule="evenodd" d="M469.283 1.06998C469.021 1.75898 468.923 103.572 469.064 227.322L469.32 452.322H709.82H950.32V226.322V0.321981L710.039 0.0699816C518.34 -0.131018 469.663 0.0709816 469.283 1.06998ZM517.597 17.379C519.686 18.842 519.82 19.665 519.82 31.05C519.82 47.248 520.243 46.822 504.165 46.822C487.724 46.822 487.814 46.906 487.835 31.572C487.851 19.79 488.075 18.857 491.32 17.017C494.525 15.199 514.886 15.48 517.597 17.379ZM587.403 18.263C588.428 19.667 588.82 23.334 588.82 31.513C588.82 46.892 588.894 46.822 572.649 46.822C556.393 46.822 556.82 47.243 556.82 31.224C556.82 15.297 556.489 15.596 573.653 16.019C584.503 16.286 586.156 16.555 587.403 18.263ZM654.597 17.379C656.699 18.851 656.82 19.638 656.82 31.844C656.82 43.582 656.645 44.845 654.886 45.787C653.822 46.356 647.67 46.822 641.214 46.822C625.456 46.822 625.82 47.191 625.82 31.224C625.82 15.628 625.624 15.822 641.32 15.822C649.707 15.822 652.911 16.198 654.597 17.379ZM722.136 16.972C725.571 18.78 725.788 19.645 725.805 31.572C725.825 46.86 725.865 46.822 709.82 46.822C693.775 46.822 693.815 46.86 693.835 31.572C693.851 19.79 694.075 18.857 697.32 17.017C699.967 15.516 719.303 15.481 722.136 16.972ZM791.597 17.379C793.691 18.845 793.82 19.656 793.82 31.307C793.82 41.221 793.508 43.991 792.249 45.251C790.995 46.504 788.253 46.822 778.683 46.822C772.086 46.822 765.818 46.356 764.754 45.787C762.995 44.845 762.82 43.582 762.82 31.844C762.82 15.535 762.542 15.822 778.32 15.822C786.707 15.822 789.911 16.198 791.597 17.379ZM860.597 17.379C862.691 18.845 862.82 19.656 862.82 31.322C862.82 47.121 863.132 46.822 846.597 46.822C830.804 46.822 830.82 46.838 830.82 31.513C830.82 20.129 831.464 17.716 834.82 16.516C835.645 16.221 841.282 15.944 847.347 15.901C855.807 15.84 858.892 16.184 860.597 17.379ZM928.136 16.972C931.571 18.78 931.788 19.645 931.805 31.572C931.826 46.883 931.89 46.822 915.649 46.822C899.393 46.822 899.82 47.243 899.82 31.224C899.82 15.655 899.655 15.822 915.108 15.822C921.345 15.822 926.879 16.31 928.136 16.972ZM915.535 64.442C921.579 66.489 926.925 70.302 929.958 74.729L932.32 78.175V226.413V374.65L929.281 378.973C927.249 381.864 924.291 384.295 920.352 386.309L914.461 389.322H709.82H505.179L499.288 386.309C495.349 384.295 492.391 381.864 490.359 378.973L487.32 374.65V226.413V78.175L489.682 74.729C492.65 70.397 498.003 66.52 503.82 64.489C507.851 63.081 529.276 62.913 709.535 62.87C892.483 62.826 911.184 62.969 915.535 64.442ZM517.597 407.379C519.686 408.842 519.82 409.665 519.82 421.05C519.82 437.248 520.243 436.822 504.165 436.822C487.724 436.822 487.814 436.906 487.835 421.572C487.851 409.79 488.075 408.857 491.32 407.017C494.525 405.199 514.886 405.48 517.597 407.379ZM587.403 408.263C588.428 409.667 588.82 413.334 588.82 421.513C588.82 436.838 588.836 436.822 573.043 436.822C556.508 436.822 556.82 437.121 556.82 421.322C556.82 405.282 556.475 405.596 573.653 406.019C584.503 406.286 586.156 406.555 587.403 408.263ZM654.597 407.379C656.699 408.851 656.82 409.638 656.82 421.844C656.82 433.582 656.645 434.845 654.886 435.787C653.822 436.356 647.67 436.822 641.214 436.822C625.456 436.822 625.82 437.191 625.82 421.224C625.82 405.628 625.624 405.822 641.32 405.822C649.707 405.822 652.911 406.198 654.597 407.379ZM722.136 406.972C725.571 408.78 725.788 409.645 725.805 421.572C725.825 436.86 725.865 436.822 709.82 436.822C693.771 436.822 693.82 436.869 693.82 421.513C693.82 410.129 694.464 407.716 697.82 406.516C700.763 405.464 719.955 405.824 722.136 406.972ZM791.597 407.379C793.686 408.842 793.82 409.665 793.82 421.05C793.82 437.194 794.179 436.822 778.599 436.822C772.048 436.822 765.818 436.356 764.754 435.787C762.995 434.845 762.82 433.582 762.82 421.844C762.82 405.535 762.542 405.822 778.32 405.822C786.707 405.822 789.911 406.198 791.597 407.379ZM860.597 407.379C862.691 408.845 862.82 409.656 862.82 421.322C862.82 437.121 863.132 436.822 846.597 436.822C830.804 436.822 830.82 436.838 830.82 421.513C830.82 410.129 831.464 407.716 834.82 406.516C835.645 406.221 841.282 405.944 847.347 405.901C855.807 405.84 858.892 406.184 860.597 407.379ZM928.136 406.972C931.571 408.78 931.788 409.645 931.805 421.572C931.826 436.883 931.89 436.822 915.649 436.822C899.393 436.822 899.82 437.243 899.82 421.224C899.82 405.655 899.655 405.822 915.108 405.822C921.345 405.822 926.879 406.31 928.136 406.972Z" fill="black"/>
<path fill-rule="evenodd" clip-rule="evenodd" d="M1074.43 107.708C1066.75 109.723 1062.91 111.625 1055.89 116.895C1047.04 123.548 1040.38 133.582 1037.54 144.553C1035.75 151.438 1035.76 163.785 1037.55 170.722C1040.97 183.988 1050.5 196.181 1062.76 202.977L1069.27 206.585L1056.55 206.596L1043.83 206.607L1044.36 215.389L1044.9 224.171L1033.01 224.439C1022.18 224.683 1021.13 224.57 1021.13 223.162C1021.13 221.819 1020.21 221.617 1014.07 221.617H1007V230.888V240.158H1013.71C1019.67 240.158 1020.46 239.962 1020.88 238.392C1021.31 236.742 1022.08 236.626 1032.72 236.626H1044.1L1044.13 260.686C1044.14 273.919 1044.13 293.917 1044.1 305.127C1044.07 316.337 1044.29 326.17 1044.6 326.979C1045.13 328.339 1052.58 328.449 1143.55 328.449H1241.94L1242 325.138C1242.03 323.318 1242.01 312.392 1241.95 300.858L1241.83 279.889H1252.93C1262.2 279.889 1264.02 280.106 1264.02 281.213C1264.02 282.302 1265.59 282.538 1272.85 282.538H1281.69V277.24C1281.69 273.585 1282.03 271.946 1282.79 271.954C1283.4 271.961 1302.97 279.06 1326.29 287.73C1349.61 296.4 1368.98 303.324 1369.35 303.117C1370.17 302.649 1370.24 199.544 1369.41 199.544C1369.09 199.544 1349.91 206.553 1326.8 215.12C1303.69 223.686 1284.08 230.884 1283.23 231.114C1281.87 231.484 1281.69 230.828 1281.69 225.693V219.851H1272.85C1264.61 219.851 1264.02 219.969 1264.02 221.617C1264.02 223.288 1263.43 223.383 1252.98 223.383H1241.94V214.995V206.607L1233.77 206.596L1225.6 206.585L1232.13 202.967C1244.39 196.168 1253.91 183.905 1257.41 170.408C1259.46 162.503 1258.89 148.156 1256.24 140.891C1248.79 120.466 1231.12 107.29 1209.7 106.185C1194.59 105.406 1181.83 110.381 1170.76 121.37C1153.63 138.381 1150.7 163.874 1163.44 185.069C1167.26 191.429 1176.69 200.188 1183.33 203.546L1188.51 206.166L1167.97 206.403C1156.68 206.533 1138.19 206.533 1126.9 206.403L1106.36 206.166L1112.11 203.174C1115.61 201.349 1120.29 197.732 1124.11 193.903C1144.41 173.542 1144.42 141.9 1124.14 121.407C1111.01 108.145 1092.37 103.008 1074.43 107.708ZM1081.1 116.8C1077.57 119.171 1075.29 124.638 1076.25 128.446C1076.6 129.828 1078.18 132.254 1079.76 133.838C1087.29 141.365 1098.84 136.317 1098.85 125.496C1098.86 122.192 1098.37 121.15 1095.43 118.212C1092.47 115.254 1091.46 114.785 1088.05 114.785C1085.41 114.785 1083.11 115.45 1081.1 116.8ZM1199.44 118.212C1196.5 121.15 1196.01 122.192 1196.02 125.496C1196.03 136.302 1207.58 141.366 1215.09 133.856C1222.6 126.346 1217.54 114.797 1206.73 114.788C1203.42 114.786 1202.38 115.276 1199.44 118.212ZM1052.98 130.524C1049.52 132.383 1046.74 136.96 1046.75 140.816C1046.76 146.586 1052.35 151.881 1058.4 151.854C1062.38 151.836 1065.3 150.199 1067.7 146.647C1071.54 140.938 1069.48 133.326 1063.28 130.386C1059.28 128.489 1056.71 128.524 1052.98 130.524ZM1112.17 130.458C1107.76 132.706 1105.47 136.264 1105.56 140.712C1105.71 147.497 1110.37 151.867 1117.46 151.867C1120.56 151.867 1121.69 151.324 1124.57 148.44C1127.59 145.427 1128 144.507 1128 140.85C1128 135.833 1125.55 131.919 1121.28 130.136C1117.44 128.535 1115.83 128.593 1112.17 130.458ZM1173.42 130.166C1165.17 133.753 1164.45 145.846 1172.2 150.423C1175.29 152.249 1180.3 152.273 1183.77 150.48C1187.68 148.461 1190.2 142.39 1188.99 137.913C1187.98 134.146 1185.34 131.269 1181.6 129.853C1178.41 128.643 1176.77 128.706 1173.42 130.166ZM1231.45 130.421C1224.61 133.789 1223.08 143.134 1228.49 148.539C1235.58 155.627 1248.12 150.288 1248.12 140.183C1248.12 136.903 1245.13 132.262 1241.89 130.524C1238.18 128.538 1235.33 128.51 1231.45 130.421ZM1080.44 144.535C1075.9 146.772 1072.86 152.009 1072.86 157.606C1072.86 172.26 1091.2 177.714 1100.1 165.708C1101.52 163.793 1101.95 161.915 1101.95 157.606C1101.95 151.335 1100.47 148.517 1095.33 145.024C1091.77 142.599 1084.84 142.371 1080.44 144.535ZM1199.54 145.024C1194.4 148.517 1192.92 151.335 1192.92 157.606C1192.92 163.877 1194.4 166.695 1199.54 170.187C1203.11 172.617 1209.77 172.854 1214.29 170.712C1221.51 167.287 1224.33 156.89 1219.96 149.822C1215.93 143.298 1205.63 140.88 1199.54 145.024ZM1081.56 146.473C1076.91 149.302 1075.01 152.474 1075.01 157.368C1075.01 164.957 1079.3 169.599 1086.87 170.207C1090.5 170.497 1091.92 170.172 1094.35 168.5C1098.57 165.594 1100.82 161.132 1100.35 156.583C1099.41 147.393 1089.12 141.861 1081.56 146.473ZM1201.66 146.065C1195.59 148.707 1192.63 157.332 1195.74 163.327C1196.62 165.017 1198.73 167.337 1200.43 168.482C1202.97 170.197 1204.35 170.499 1208.22 170.188C1212.21 169.869 1213.41 169.318 1216.17 166.563C1219.24 163.498 1219.42 162.998 1219.42 157.662C1219.42 152.851 1219.09 151.658 1217.21 149.647C1212.75 144.872 1207.29 143.615 1201.66 146.065ZM1052.83 161.536C1047.49 164.426 1045.32 171.264 1048.05 176.554C1052.44 185.027 1064.02 185.027 1068.4 176.554C1073.46 166.78 1062.56 156.267 1052.83 161.536ZM1112.17 161.36C1107.76 163.608 1105.47 167.166 1105.56 171.614C1105.88 186.457 1128.02 186.439 1128 171.597C1128 167.142 1125.18 162.669 1121.39 161.085C1117.44 159.436 1115.85 159.483 1112.17 161.36ZM1173.42 161.068C1169.13 162.932 1166.86 166.461 1166.9 171.189C1166.91 173.43 1167.44 176.182 1168.06 177.304C1170.84 182.305 1178.26 184.232 1183.77 181.382C1187.68 179.363 1190.2 173.292 1188.99 168.815C1187.98 165.048 1185.34 162.171 1181.6 160.755C1178.41 159.545 1176.77 159.607 1173.42 161.068ZM1231.45 161.323C1226.99 163.518 1224.98 167.278 1225.44 172.561C1225.75 176.2 1226.34 177.404 1229.01 179.845C1231.58 182.201 1232.93 182.768 1235.97 182.765C1249.15 182.754 1252.55 166.188 1240.42 161.024C1236.77 159.465 1235.11 159.521 1231.45 161.323ZM1083.33 178.697C1077.83 181.148 1074.93 187.341 1076.73 192.789C1078.3 197.552 1081.35 199.78 1086.92 200.242C1091.63 200.632 1091.89 200.534 1095.32 197.108C1098.32 194.113 1098.86 193.009 1098.86 189.892C1098.86 183.33 1095.31 179.028 1089.05 177.982C1087.32 177.693 1084.9 177.996 1083.33 178.697ZM1202.3 178.981C1191.63 184.238 1195.32 200.435 1207.19 200.424C1219.76 200.411 1222.98 183.548 1211.35 178.689C1207.6 177.124 1205.97 177.177 1202.3 178.981ZM1326.29 221.694C1306.86 228.941 1289.27 235.496 1287.21 236.263C1283.67 237.576 1283.45 237.852 1283.45 241.114C1283.45 243.016 1283.69 244.573 1283.98 244.573C1285.2 244.573 1363.22 226.846 1363.93 226.409C1364.36 226.144 1364.71 221.978 1364.71 217.15C1364.71 209.352 1364.54 208.381 1363.17 208.446C1362.32 208.485 1345.72 214.447 1326.29 221.694ZM1226.04 250.312V288.718H1231.78H1237.53V250.312V211.905H1231.78H1226.04V250.312ZM1067.12 216.88C1062.1 223.268 1068.77 231.921 1075.89 228.242C1079.06 226.6 1080.61 223.244 1079.83 219.699C1078.65 214.333 1070.54 212.534 1067.12 216.88ZM1118.29 253.843V286.069H1157.59H1196.9V253.843V221.617H1157.59H1118.29V253.843ZM1009.21 223.907C1013.4 224.582 1019.37 224.666 1019.37 224.051C1019.37 223.684 1016.68 223.437 1013.4 223.503C1010.12 223.569 1008.24 223.751 1009.21 223.907ZM1022.02 226.914C1022.02 227.458 1026.45 227.797 1033.55 227.797C1041.01 227.797 1044.89 227.486 1044.54 226.914C1044.22 226.402 1039.38 226.032 1033 226.032C1026.27 226.032 1022.02 226.373 1022.02 226.914ZM1124.47 227.797C1124.47 228.358 1131.24 228.68 1143.02 228.68C1154.79 228.68 1161.57 228.358 1161.57 227.797C1161.57 227.237 1154.79 226.914 1143.02 226.914C1131.24 226.914 1124.47 227.237 1124.47 227.797ZM1165.98 253.843V280.772H1178.35H1190.71V253.843V226.914H1178.35H1165.98V253.843ZM1246.36 243.248V258.699H1254.75H1263.14V243.248V227.797H1254.75H1246.36V243.248ZM1268.18 228.346C1267.84 228.692 1267.56 232.087 1267.56 235.891V242.807L1272.63 242.806L1277.71 242.804L1277.65 235.522L1277.58 228.239L1273.2 227.978C1270.79 227.835 1268.53 228 1268.18 228.346ZM1137.87 237.787C1131.95 244.093 1140.91 252.936 1147.03 246.82C1148.23 245.628 1149.2 243.624 1149.2 242.365C1149.2 239.288 1145.52 235.744 1142.33 235.744C1140.82 235.744 1139.02 236.571 1137.87 237.787ZM1061.76 271.943V297.547H1082.48H1103.2L1103.45 291.146C1103.6 287.625 1103.6 276.104 1103.46 265.542L1103.21 246.338H1082.48H1061.76V271.943ZM1067.06 256.492V258.699H1082.52H1097.97V256.492V254.285H1082.52H1067.06V256.492ZM1137.87 256.328C1133.9 260.56 1136.92 267.528 1142.74 267.528C1145.48 267.528 1149.2 263.807 1149.2 261.065C1149.2 255.153 1141.86 252.084 1137.87 256.328ZM1067.06 264.438V266.645H1082.52H1097.97V264.438V262.231H1082.52H1067.06V264.438ZM1067.06 272.384V274.592H1082.52H1097.97V272.384V270.177H1082.52H1067.06V272.384ZM1124.47 277.664V279.889H1143.08H1161.69L1161.41 277.903C1161.13 275.924 1161.05 275.915 1142.8 275.678L1124.47 275.438V277.664ZM1067.06 279.448V281.655H1082.52H1097.97V279.448V277.24H1082.52H1067.06V279.448ZM1067.06 287.394V289.601H1082.52H1097.97V287.394V285.187H1082.52H1067.06V287.394ZM1190.89 305.67C1188.98 307.58 1189.64 311.505 1192.14 313.146C1194.21 314.502 1194.69 314.524 1196.78 313.358C1199.61 311.775 1200.23 308.593 1198.15 306.304C1196.44 304.403 1192.5 304.061 1190.89 305.67ZM1208.8 306.403C1205.16 310.423 1211.4 316.661 1215.42 313.022C1217.56 311.085 1217.74 307.916 1215.82 305.998C1213.9 304.08 1210.73 304.263 1208.8 306.403ZM1062.02 306.964C1061.81 307.53 1061.76 309.12 1061.92 310.496L1062.2 312.998H1119.83H1177.47L1177.6 310.57C1177.67 309.235 1177.77 307.703 1177.82 307.165C1177.95 305.726 1062.58 305.526 1062.02 306.964ZM1047.63 324.035C1047.63 324.552 1050.65 324.918 1054.92 324.919C1126.24 324.933 1232.57 324.939 1235.1 324.929C1236.92 324.923 1238.41 324.52 1238.41 324.035C1238.41 323.452 1206.02 323.152 1143.02 323.152C1080.01 323.152 1047.63 323.452 1047.63 324.035ZM1063.9 333.172C1063.65 333.827 1063.56 337.105 1063.7 340.456L1063.97 346.549L1140.15 346.775L1216.33 347V339.491V331.981H1140.34C1077.39 331.981 1064.28 332.185 1063.9 333.172Z" fill="black"/>
</svg>
